<svg xmlns="http://www.w3.org/2000/svg" xmlns:xlink="http://www.w3.org/1999/xlink" version="1.1" width="866.88pt" height="416.88pt" viewBox="0 0 866.88 416.88">
<defs>
<clipPath id="clip_0">
<path transform="matrix(.24,0,0,.24,0,0)" d="M0 0H3612.5V1734.4992H0Z" fill-rule="evenodd"/>
</clipPath>
<clipPath id="clip_1">
<path transform="matrix(.24,0,0,.24,0,0)" d="M0 0H3612.5V1734.4992H0Z" fill-rule="evenodd"/>
</clipPath>
<clipPath id="clip_2">
<path transform="matrix(.24,0,0,.24,0,0)" d="M0 0H3612.5V1734.4992H0Z" fill-rule="evenodd"/>
</clipPath>
</defs>
<g clip-path="url(#clip_0)">
<path transform="matrix(.7487046,0,0,.7487046,0,0)" d="M0 0H1158V557H0Z" fill="#ffffff"/>
</g>
<g clip-path="url(#clip_1)">
<path transform="matrix(.80916389,0,0,.80932578,0,0)" d="M0 0H1071.4782V515.2817H0Z" fill="#ffffff"/>
</g>
<g clip-path="url(#clip_2)">
<path transform="matrix(.80916246,0,0,.80932828,389.1109,27.601376)" d="M8 0H157.39409C157.91938 0 158.4396 .051239246 158.9548 .15371774 159.46999 .25619624 159.97023 .40794487 160.45554 .60896369 160.94084 .8099825 161.40187 1.0564089 161.83863 1.348243 162.27539 1.6400771 162.67949 1.9717112 163.05094 2.3431457 163.42237 2.7145799 163.754 3.1186772 164.04584 3.5554376 164.33766 3.9921983 164.58408 4.4532296 164.7851 4.938532 164.98612 5.4238345 165.13787 5.9240829 165.24036 6.439277 165.34285 6.954471 165.39409 7.474712 165.39409 8V66.668148C165.39409 67.19343 165.34285 67.71367 165.24036 68.22886 165.13788 68.74405 164.98613 69.2443 164.78511 69.7296 164.58408 70.214908 164.33766 70.67594 164.04584 71.1127 163.754 71.54946 163.42237 71.95355 163.05094 72.32499 162.67949 72.69642 162.27539 73.02805 161.83863 73.319889 161.40187 73.611728 160.94084 73.858158 160.45554 74.05917 159.97023 74.26019 159.46999 74.41194 158.95479 74.51443 158.4396 74.6169 157.91938 74.66814 157.39409 74.668148H8C7.474712 74.66814 6.954471 74.6169 6.4392769 74.51443 5.9240825 74.41194 5.4238345 74.260189 4.938532 74.059169 4.4532296 73.858158 3.9921983 73.611728 3.5554376 73.319889 3.1186772 73.02805 2.7145799 72.69642 2.3431457 72.32499 1.9717112 71.95355 1.640077 71.54945 1.3482429 71.11269 1.0564089 70.675937 .8099825 70.214908 .60896369 69.7296 .40794487 69.2443 .25619624 68.74405 .15371774 68.22885 .051239246 67.71366 0 67.19343 0 66.668148V8C0 7.474712 .051239246 6.954471 .15371774 6.4392769 .25619624 5.9240825 .40794487 5.4238345 .60896369 4.938532 .8099825 4.4532296 1.0564089 3.9921983 1.348243 3.5554376 1.6400771 3.1186772 1.9717112 2.7145799 2.3431457 2.3431457 2.7145799 1.9717112 3.1186772 1.640077 3.5554376 1.3482429 3.9921983 1.0564089 4.4532296 .8099825 4.938532 .60896369 5.4238345 .40794487 5.9240829 .25619624 6.439277 .15371774 6.954471 .051239246 7.474712 0 8 0Z" fill="#ffffff"/>
<path transform="matrix(.80916246,0,0,.80932828,389.1109,27.601376)" stroke-width="2" stroke-linecap="round" stroke-linejoin="round" fill="none" stroke="#1a1a1a" d="M8 0H157.39409C157.91938 0 158.4396 .051239246 158.9548 .15371774 159.46999 .25619624 159.97023 .40794487 160.45554 .60896369 160.94084 .8099825 161.40187 1.0564089 161.83863 1.348243 162.27539 1.6400771 162.67949 1.9717112 163.05094 2.3431457 163.42237 2.7145799 163.754 3.1186772 164.04584 3.5554376 164.33766 3.9921983 164.58408 4.4532296 164.7851 4.938532 164.98612 5.4238345 165.13787 5.9240829 165.24036 6.439277 165.34285 6.954471 165.39409 7.474712 165.39409 8V66.668148C165.39409 67.19343 165.34285 67.71367 165.24036 68.22886 165.13788 68.74405 164.98613 69.2443 164.78511 69.7296 164.58408 70.214908 164.33766 70.67594 164.04584 71.1127 163.754 71.54946 163.42237 71.95355 163.05094 72.32499 162.67949 72.69642 162.27539 73.02805 161.83863 73.319889 161.40187 73.611728 160.94084 73.858158 160.45554 74.05917 159.97023 74.26019 159.46999 74.41194 158.95479 74.51443 158.4396 74.6169 157.91938 74.66814 157.39409 74.668148H8C7.474712 74.66814 6.954471 74.6169 6.4392769 74.51443 5.9240825 74.41194 5.4238345 74.260189 4.938532 74.059169 4.4532296 73.858158 3.9921983 73.611728 3.5554376 73.319889 3.1186772 73.02805 2.7145799 72.69642 2.3431457 72.32499 1.9717112 71.95355 1.640077 71.54945 1.3482429 71.11269 1.0564089 70.675937 .8099825 70.214908 .60896369 69.7296 .40794487 69.2443 .25619624 68.74405 .15371774 68.22885 .051239246 67.71366 0 67.19343 0 66.668148V8C0 7.474712 .051239246 6.954471 .15371774 6.4392769 .25619624 5.9240825 .40794487 5.4238345 .60896369 4.938532 .8099825 4.4532296 1.0564089 3.9921983 1.348243 3.5554376 1.6400771 3.1186772 1.9717112 2.7145799 2.3431457 2.3431457 2.7145799 1.9717112 3.1186772 1.640077 3.5554376 1.3482429 3.9921983 1.0564089 4.4532296 .8099825 4.938532 .60896369 5.4238345 .40794487 5.9240829 .25619624 6.439277 .15371774 6.954471 .051239246 7.474712 0 8 0Z"/>
<g id="layer_1" data-name="P">
</g>
<text fill="#1a1a1a" xml:space="preserve" transform="matrix(.80916246 0 0 .80932828 402.0575 40.550634)" font-size="16" font-family="OpenSans"><tspan y="26.334074" x="26.001734 34.897737 43.28174 53.089738 59.617738 68.593738 76.22574 83.85774 87.90575 97.56975">Expression</tspan></text>
<path transform="matrix(.80916246,0,0,.80932828,207.43596,175.8324)" d="M8 0H165.35802C165.8833 0 166.40352 .051239246 166.9187 .15371774 167.43392 .25619624 167.93416 .40794487 168.41947 .60896369 168.90477 .8099825 169.3658 1.0564089 169.80255 1.348243 170.23932 1.6400771 170.64342 1.9717112 171.01486 2.3431457 171.38628 2.7145799 171.71791 3.1186772 172.00975 3.5554376 172.30159 3.9921983 172.54802 4.4532296 172.74904 4.938532 172.95005 5.4238345 173.10179 5.9240829 173.20429 6.439277 173.30678 6.954471 173.35802 7.474712 173.35802 8V80.53373C173.35802 81.05902 173.30678 81.579257 173.20429 82.094448 173.10179 82.60964 172.95005 83.10989 172.74903 83.59519 172.54802 84.08049 172.30159 84.54153 172.00975 84.97829 171.71791 85.41505 171.38628 85.81914 171.01486 86.190578 170.64342 86.562007 170.23932 86.89364 169.80255 87.18548 169.36579 87.47731 168.90476 87.72374 168.41945 87.92475 167.93415 88.12577 167.4339 88.27752 166.91872 88.380008 166.40354 88.48248 165.8833 88.53372 165.35802 88.53373H8C7.474712 88.53372 6.954471 88.48248 6.4392769 88.38001 5.9240825 88.27753 5.4238345 88.12577 4.938532 87.92476 4.4532296 87.72374 3.9921983 87.47732 3.5554376 87.185489 3.1186772 86.89364 2.7145799 86.562007 2.3431457 86.190578 1.9717112 85.81914 1.640077 85.41504 1.3482429 84.97828 1.0564089 84.54152 .8099825 84.08049 .60896369 83.59519 .40794487 83.10989 .25619624 82.60964 .15371774 82.094448 .051239246 81.579257 0 81.05902 0 80.53373V8C0 7.474712 .051239246 6.954471 .15371774 6.4392769 .25619624 5.9240825 .40794487 5.4238345 .60896369 4.938532 .8099825 4.4532296 1.0564089 3.9921983 1.348243 3.5554376 1.6400771 3.1186772 1.9717112 2.7145799 2.3431457 2.3431457 2.7145799 1.9717112 3.1186772 1.640077 3.5554376 1.3482429 3.9921983 1.0564089 4.4532296 .8099825 4.938532 .60896369 5.4238345 .40794487 5.9240829 .25619624 6.439277 .15371774 6.954471 .051239246 7.474712 0 8 0Z" fill="#ffffff"/>
<path transform="matrix(.80916246,0,0,.80932828,207.43596,175.8324)" stroke-width="2" stroke-linecap="round" stroke-linejoin="round" fill="none" stroke="#1a1a1a" d="M8 0H165.35802C165.8833 0 166.40352 .051239246 166.9187 .15371774 167.43392 .25619624 167.93416 .40794487 168.41947 .60896369 168.90477 .8099825 169.3658 1.0564089 169.80255 1.348243 170.23932 1.6400771 170.64342 1.9717112 171.01486 2.3431457 171.38628 2.7145799 171.71791 3.1186772 172.00975 3.5554376 172.30159 3.9921983 172.54802 4.4532296 172.74904 4.938532 172.95005 5.4238345 173.10179 5.9240829 173.20429 6.439277 173.30678 6.954471 173.35802 7.474712 173.35802 8V80.53373C173.35802 81.05902 173.30678 81.579257 173.20429 82.094448 173.10179 82.60964 172.95005 83.10989 172.74903 83.59519 172.54802 84.08049 172.30159 84.54153 172.00975 84.97829 171.71791 85.41505 171.38628 85.81914 171.01486 86.190578 170.64342 86.562007 170.23932 86.89364 169.80255 87.18548 169.36579 87.47731 168.90476 87.72374 168.41945 87.92475 167.93415 88.12577 167.4339 88.27752 166.91872 88.380008 166.40354 88.48248 165.8833 88.53372 165.35802 88.53373H8C7.474712 88.53372 6.954471 88.48248 6.4392769 88.38001 5.9240825 88.27753 5.4238345 88.12577 4.938532 87.92476 4.4532296 87.72374 3.9921983 87.47732 3.5554376 87.185489 3.1186772 86.89364 2.7145799 86.562007 2.3431457 86.190578 1.9717112 85.81914 1.640077 85.41504 1.3482429 84.97828 1.0564089 84.54152 .8099825 84.08049 .60896369 83.59519 .40794487 83.10989 .25619624 82.60964 .15371774 82.094448 .051239246 81.579257 0 81.05902 0 80.53373V8C0 7.474712 .051239246 6.954471 .15371774 6.4392769 .25619624 5.9240825 .40794487 5.4238345 .60896369 4.938532 .8099825 4.4532296 1.0564089 3.9921983 1.348243 3.5554376 1.6400771 3.1186772 1.9717112 2.7145799 2.3431457 2.3431457 2.7145799 1.9717112 3.1186772 1.640077 3.5554376 1.3482429 3.9921983 1.0564089 4.4532296 .8099825 4.938532 .60896369 5.4238345 .40794487 5.9240829 .25619624 6.439277 .15371774 6.954471 .051239246 7.474712 0 8 0Z"/>
<g id="layer_1" data-name="P">
</g>
<text fill="#1a1a1a" xml:space="preserve" transform="matrix(.80916246 0 0 .80932828 220.38256 188.78165)" font-size="16" font-family="OpenSans"><tspan y="33.266866" x="2.6711999 14.7352 23.6312 38.5112 47.4872 57.295206 66.19121 74.57521 84.38321 90.91121 99.88721 107.51921 115.151218 119.19922 128.86322">NamedExpression</tspan></text>
<path transform="matrix(.80916246,0,0,.80932828,280.91474,322.58784)" d="M8 0H165.35802C165.8833 0 166.40352 .051239246 166.9187 .15371774 167.43392 .25619624 167.93416 .40794487 168.41947 .60896369 168.90477 .8099825 169.3658 1.0564089 169.80255 1.348243 170.23932 1.6400771 170.64342 1.9717112 171.01486 2.3431457 171.38628 2.7145799 171.71791 3.1186772 172.00975 3.5554376 172.30159 3.9921983 172.54802 4.4532296 172.74904 4.938532 172.95005 5.4238345 173.10179 5.9240829 173.20429 6.439277 173.30678 6.954471 173.35802 7.474712 173.35802 8V80.53373C173.35802 81.05902 173.30678 81.579257 173.20429 82.094448 173.10179 82.60964 172.95005 83.10989 172.74903 83.59519 172.54802 84.08049 172.30159 84.54153 172.00975 84.97829 171.71791 85.41505 171.38628 85.81914 171.01486 86.190578 170.64342 86.562007 170.23932 86.89364 169.80255 87.18548 169.36579 87.47731 168.90476 87.72374 168.41945 87.92475 167.93415 88.12577 167.4339 88.27752 166.91872 88.380008 166.40354 88.48248 165.8833 88.53372 165.35802 88.53373H8C7.474712 88.53372 6.954471 88.48248 6.4392769 88.38001 5.9240825 88.27753 5.4238345 88.12577 4.938532 87.92476 4.4532296 87.72374 3.9921983 87.47732 3.5554376 87.185489 3.1186772 86.89364 2.7145799 86.562007 2.3431457 86.190578 1.9717112 85.81914 1.640077 85.41504 1.3482429 84.97828 1.0564089 84.54152 .8099825 84.08049 .60896369 83.59519 .40794487 83.10989 .25619624 82.60964 .15371774 82.094448 .051239246 81.579257 0 81.05902 0 80.53373V8C0 7.474712 .051239246 6.954471 .15371774 6.4392769 .25619624 5.9240825 .40794487 5.4238345 .60896369 4.938532 .8099825 4.4532296 1.0564089 3.9921983 1.348243 3.5554376 1.6400771 3.1186772 1.9717112 2.7145799 2.3431457 2.3431457 2.7145799 1.9717112 3.1186772 1.640077 3.5554376 1.3482429 3.9921983 1.0564089 4.4532296 .8099825 4.938532 .60896369 5.4238345 .40794487 5.9240829 .25619624 6.439277 .15371774 6.954471 .051239246 7.474712 0 8 0Z" fill="#ffffff"/>
<path transform="matrix(.80916246,0,0,.80932828,280.91474,322.58784)" stroke-width="2" stroke-linecap="round" stroke-linejoin="round" fill="none" stroke="#1a1a1a" d="M8 0H165.35802C165.8833 0 166.40352 .051239246 166.9187 .15371774 167.43392 .25619624 167.93416 .40794487 168.41947 .60896369 168.90477 .8099825 169.3658 1.0564089 169.80255 1.348243 170.23932 1.6400771 170.64342 1.9717112 171.01486 2.3431457 171.38628 2.7145799 171.71791 3.1186772 172.00975 3.5554376 172.30159 3.9921983 172.54802 4.4532296 172.74904 4.938532 172.95005 5.4238345 173.10179 5.9240829 173.20429 6.439277 173.30678 6.954471 173.35802 7.474712 173.35802 8V80.53373C173.35802 81.05902 173.30678 81.579257 173.20429 82.094448 173.10179 82.60964 172.95005 83.10989 172.74903 83.59519 172.54802 84.08049 172.30159 84.54153 172.00975 84.97829 171.71791 85.41505 171.38628 85.81914 171.01486 86.190578 170.64342 86.562007 170.23932 86.89364 169.80255 87.18548 169.36579 87.47731 168.90476 87.72374 168.41945 87.92475 167.93415 88.12577 167.4339 88.27752 166.91872 88.380008 166.40354 88.48248 165.8833 88.53372 165.35802 88.53373H8C7.474712 88.53372 6.954471 88.48248 6.4392769 88.38001 5.9240825 88.27753 5.4238345 88.12577 4.938532 87.92476 4.4532296 87.72374 3.9921983 87.47732 3.5554376 87.185489 3.1186772 86.89364 2.7145799 86.562007 2.3431457 86.190578 1.9717112 85.81914 1.640077 85.41504 1.3482429 84.97828 1.0564089 84.54152 .8099825 84.08049 .60896369 83.59519 .40794487 83.10989 .25619624 82.60964 .15371774 82.094448 .051239246 81.579257 0 81.05902 0 80.53373V8C0 7.474712 .051239246 6.954471 .15371774 6.4392769 .25619624 5.9240825 .40794487 5.4238345 .60896369 4.938532 .8099825 4.4532296 1.0564089 3.9921983 1.348243 3.5554376 1.6400771 3.1186772 1.9717112 2.7145799 2.3431457 2.3431457 2.7145799 1.9717112 3.1186772 1.640077 3.5554376 1.3482429 3.9921983 1.0564089 4.4532296 .8099825 4.938532 .60896369 5.4238345 .40794487 5.9240829 .25619624 6.439277 .15371774 6.954471 .051239246 7.474712 0 8 0Z"/>
<g id="layer_1" data-name="P">
</g>
<text fill="#1a1a1a" xml:space="preserve" transform="matrix(.80916246 0 0 .80932828 293.8613 335.5371)" font-size="16" font-family="OpenSans"><tspan y="33.266866" x="53.304014 63.432016 67.48001 71.528018 80.42402">Alias</tspan></text>
<path transform="matrix(.80916246,0,0,.80932828,313.2058,247.48361)" stroke-width="2" stroke-linecap="butt" stroke-miterlimit="4" stroke-linejoin="miter" fill="none" stroke="#333333" d="M46.771638 91.99563V54.397817C46.771638 49.064485 44.10497 46.397817 38.771638 46.397817H8C2.6666666 46.397817 0 43.731149 0 38.397817V13.672728"/>
<path transform="matrix(.00000000000000004459222,-.72839549,.7282462,.00000000000000004460136,313.2058,249.1023)" d="M-17.09091-8.545455 0 0-17.09091 8.545455V-8.545455Z" fill="#ffffff"/>
<path transform="matrix(.00000000000000004459222,-.72839549,.7282462,.00000000000000004460136,313.2058,249.1023)" stroke-width="2" stroke-linecap="butt" stroke-miterlimit="4" stroke-linejoin="miter" fill="none" stroke="#333333" d="M-17.09091-8.545455 0 0-17.09091 8.545455V-8.545455Z"/>
<path transform="matrix(.80916246,0,0,.80932828,99.99611,322.58784)" d="M8 0H165.35802C165.8833 0 166.40352 .051239246 166.9187 .15371774 167.43392 .25619624 167.93416 .40794487 168.41947 .60896369 168.90477 .8099825 169.3658 1.0564089 169.80255 1.348243 170.23932 1.6400771 170.64342 1.9717112 171.01486 2.3431457 171.38628 2.7145799 171.71791 3.1186772 172.00975 3.5554376 172.30159 3.9921983 172.54802 4.4532296 172.74904 4.938532 172.95005 5.4238345 173.10179 5.9240829 173.20429 6.439277 173.30678 6.954471 173.35802 7.474712 173.35802 8V80.53373C173.35802 81.05902 173.30678 81.579257 173.20429 82.094448 173.10179 82.60964 172.95005 83.10989 172.74903 83.59519 172.54802 84.08049 172.30159 84.54153 172.00975 84.97829 171.71791 85.41505 171.38628 85.81914 171.01486 86.190578 170.64342 86.562007 170.23932 86.89364 169.80255 87.18548 169.36579 87.47731 168.90476 87.72374 168.41945 87.92475 167.93415 88.12577 167.4339 88.27752 166.91872 88.380008 166.40354 88.48248 165.8833 88.53372 165.35802 88.53373H8C7.474712 88.53372 6.954471 88.48248 6.4392769 88.38001 5.9240825 88.27753 5.4238345 88.12577 4.938532 87.92476 4.4532296 87.72374 3.9921983 87.47732 3.5554376 87.185489 3.1186772 86.89364 2.7145799 86.562007 2.3431457 86.190578 1.9717112 85.81914 1.640077 85.41504 1.3482429 84.97828 1.0564089 84.54152 .8099825 84.08049 .60896369 83.59519 .40794487 83.10989 .25619624 82.60964 .15371774 82.094448 .051239246 81.579257 0 81.05902 0 80.53373V8C0 7.474712 .051239246 6.954471 .15371774 6.4392769 .25619624 5.9240825 .40794487 5.4238345 .60896369 4.938532 .8099825 4.4532296 1.0564089 3.9921983 1.348243 3.5554376 1.6400771 3.1186772 1.9717112 2.7145799 2.3431457 2.3431457 2.7145799 1.9717112 3.1186772 1.640077 3.5554376 1.3482429 3.9921983 1.0564089 4.4532296 .8099825 4.938532 .60896369 5.4238345 .40794487 5.9240829 .25619624 6.439277 .15371774 6.954471 .051239246 7.474712 0 8 0Z" fill="#ffffff"/>
<path transform="matrix(.80916246,0,0,.80932828,99.99611,322.58784)" stroke-width="2" stroke-linecap="round" stroke-linejoin="round" fill="none" stroke="#1a1a1a" d="M8 0H165.35802C165.8833 0 166.40352 .051239246 166.9187 .15371774 167.43392 .25619624 167.93416 .40794487 168.41947 .60896369 168.90477 .8099825 169.3658 1.0564089 169.80255 1.348243 170.23932 1.6400771 170.64342 1.9717112 171.01486 2.3431457 171.38628 2.7145799 171.71791 3.1186772 172.00975 3.5554376 172.30159 3.9921983 172.54802 4.4532296 172.74904 4.938532 172.95005 5.4238345 173.10179 5.9240829 173.20429 6.439277 173.30678 6.954471 173.35802 7.474712 173.35802 8V80.53373C173.35802 81.05902 173.30678 81.579257 173.20429 82.094448 173.10179 82.60964 172.95005 83.10989 172.74903 83.59519 172.54802 84.08049 172.30159 84.54153 172.00975 84.97829 171.71791 85.41505 171.38628 85.81914 171.01486 86.190578 170.64342 86.562007 170.23932 86.89364 169.80255 87.18548 169.36579 87.47731 168.90476 87.72374 168.41945 87.92475 167.93415 88.12577 167.4339 88.27752 166.91872 88.380008 166.40354 88.48248 165.8833 88.53372 165.35802 88.53373H8C7.474712 88.53372 6.954471 88.48248 6.4392769 88.38001 5.9240825 88.27753 5.4238345 88.12577 4.938532 87.92476 4.4532296 87.72374 3.9921983 87.47732 3.5554376 87.185489 3.1186772 86.89364 2.7145799 86.562007 2.3431457 86.190578 1.9717112 85.81914 1.640077 85.41504 1.3482429 84.97828 1.0564089 84.54152 .8099825 84.08049 .60896369 83.59519 .40794487 83.10989 .25619624 82.60964 .15371774 82.094448 .051239246 81.579257 0 81.05902 0 80.53373V8C0 7.474712 .051239246 6.954471 .15371774 6.4392769 .25619624 5.9240825 .40794487 5.4238345 .60896369 4.938532 .8099825 4.4532296 1.0564089 3.9921983 1.348243 3.5554376 1.6400771 3.1186772 1.9717112 2.7145799 2.3431457 2.3431457 2.7145799 1.9717112 3.1186772 1.640077 3.5554376 1.3482429 3.9921983 1.0564089 4.4532296 .8099825 4.938532 .60896369 5.4238345 .40794487 5.9240829 .25619624 6.439277 .15371774 6.954471 .051239246 7.474712 0 8 0Z"/>
<g id="layer_1" data-name="P">
</g>
<text fill="#1a1a1a" xml:space="preserve" transform="matrix(.80916246 0 0 .80932828 112.94272 335.5371)" font-size="16" font-family="OpenSans"><tspan y="33.266866" x="20.882138 30.978138 40.64214 44.69014 54.51414 69.39414 79.21814 88.738147 97.63415 101.682147 111.50614">ColumnValue</tspan></text>
<path transform="matrix(.80916246,0,0,.80932828,170.13492,247.48361)" stroke-width="2" stroke-linecap="butt" stroke-miterlimit="4" stroke-linejoin="miter" fill="none" stroke="#333333" d="M0 91.99563V54.397817C0 49.064485 2.6666666 46.397817 8 46.397817H71.3555C76.688838 46.397817 79.3555 43.731149 79.3555 38.397817V13.672728"/>
<path transform="matrix(.00000000000000004459222,-.72839549,.7282462,.00000000000000004460136,234.34642,249.1023)" d="M-17.09091-8.545455 0 0-17.09091 8.545455V-8.545455Z" fill="#ffffff"/>
<path transform="matrix(.00000000000000004459222,-.72839549,.7282462,.00000000000000004460136,234.34642,249.1023)" stroke-width="2" stroke-linecap="butt" stroke-miterlimit="4" stroke-linejoin="miter" fill="none" stroke="#333333" d="M-17.09091-8.545455 0 0-17.09091 8.545455V-8.545455Z"/>
<path transform="matrix(.80916246,0,0,.80932828,30.628632,175.8324)" d="M8 0H179.55034C180.07563 0 180.59586 .051239246 181.11106 .15371774 181.62624 .25619624 182.12648 .40794487 182.61179 .60896369 183.09709 .8099825 183.55812 1.0564089 183.99488 1.348243 184.43166 1.6400771 184.83576 1.9717112 185.20719 2.3431457 185.5786 2.7145799 185.91024 3.1186772 186.20207 3.5554376 186.4939 3.9921983 186.74033 4.4532296 186.94136 4.938532 187.14238 5.4238345 187.29413 5.9240829 187.39662 6.439277 187.4991 6.954471 187.55034 7.474712 187.55034 8V80.53373C187.55034 81.05902 187.4991 81.579257 187.3966 82.094448 187.29412 82.60964 187.14237 83.10989 186.94135 83.59519 186.74033 84.08049 186.4939 84.54153 186.20206 84.97829 185.91024 85.41505 185.5786 85.81914 185.20719 86.190578 184.83576 86.562007 184.43166 86.89364 183.99488 87.18548 183.55812 87.47731 183.09709 87.72374 182.61179 87.92475 182.12648 88.12577 181.62624 88.27752 181.11104 88.380008 180.59586 88.48248 180.07563 88.53372 179.55034 88.53373H8C7.474712 88.53372 6.954471 88.48248 6.4392769 88.38001 5.9240825 88.27753 5.4238345 88.12577 4.938532 87.92476 4.4532296 87.72374 3.9921983 87.47732 3.5554376 87.185489 3.1186772 86.89364 2.7145799 86.562007 2.3431457 86.190578 1.9717112 85.81914 1.640077 85.41504 1.3482429 84.97828 1.0564089 84.54152 .8099825 84.08049 .60896369 83.59519 .40794487 83.10989 .25619624 82.60964 .15371774 82.094448 .051239246 81.579257 0 81.05902 0 80.53373V8C0 7.474712 .051239246 6.954471 .15371774 6.4392769 .25619624 5.9240825 .40794487 5.4238345 .60896369 4.938532 .8099825 4.4532296 1.0564089 3.9921983 1.348243 3.5554376 1.6400771 3.1186772 1.9717112 2.7145799 2.3431457 2.3431457 2.7145799 1.9717112 3.1186772 1.640077 3.5554376 1.3482429 3.9921983 1.0564089 4.4532296 .8099825 4.938532 .60896369 5.4238345 .40794487 5.9240829 .25619624 6.439277 .15371774 6.954471 .051239246 7.474712 0 8 0Z" fill="#ffffff"/>
<path transform="matrix(.80916246,0,0,.80932828,30.628632,175.8324)" stroke-width="2" stroke-linecap="round" stroke-linejoin="round" fill="none" stroke="#1a1a1a" d="M8 0H179.55034C180.07563 0 180.59586 .051239246 181.11106 .15371774 181.62624 .25619624 182.12648 .40794487 182.61179 .60896369 183.09709 .8099825 183.55812 1.0564089 183.99488 1.348243 184.43166 1.6400771 184.83576 1.9717112 185.20719 2.3431457 185.5786 2.7145799 185.91024 3.1186772 186.20207 3.5554376 186.4939 3.9921983 186.74033 4.4532296 186.94136 4.938532 187.14238 5.4238345 187.29413 5.9240829 187.39662 6.439277 187.4991 6.954471 187.55034 7.474712 187.55034 8V80.53373C187.55034 81.05902 187.4991 81.579257 187.3966 82.094448 187.29412 82.60964 187.14237 83.10989 186.94135 83.59519 186.74033 84.08049 186.4939 84.54153 186.20206 84.97829 185.91024 85.41505 185.5786 85.81914 185.20719 86.190578 184.83576 86.562007 184.43166 86.89364 183.99488 87.18548 183.55812 87.47731 183.09709 87.72374 182.61179 87.92475 182.12648 88.12577 181.62624 88.27752 181.11104 88.380008 180.59586 88.48248 180.07563 88.53372 179.55034 88.53373H8C7.474712 88.53372 6.954471 88.48248 6.4392769 88.38001 5.9240825 88.27753 5.4238345 88.12577 4.938532 87.92476 4.4532296 87.72374 3.9921983 87.47732 3.5554376 87.185489 3.1186772 86.89364 2.7145799 86.562007 2.3431457 86.190578 1.9717112 85.81914 1.640077 85.41504 1.3482429 84.97828 1.0564089 84.54152 .8099825 84.08049 .60896369 83.59519 .40794487 83.10989 .25619624 82.60964 .15371774 82.094448 .051239246 81.579257 0 81.05902 0 80.53373V8C0 7.474712 .051239246 6.954471 .15371774 6.4392769 .25619624 5.9240825 .40794487 5.4238345 .60896369 4.938532 .8099825 4.4532296 1.0564089 3.9921983 1.348243 3.5554376 1.6400771 3.1186772 1.9717112 2.7145799 2.3431457 2.3431457 2.7145799 1.9717112 3.1186772 1.640077 3.5554376 1.3482429 3.9921983 1.0564089 4.4532296 .8099825 4.938532 .60896369 5.4238345 .40794487 5.9240829 .25619624 6.439277 .15371774 6.954471 .051239246 7.474712 0 8 0Z"/>
<g id="layer_1" data-name="P">
</g>
<text fill="#1a1a1a" xml:space="preserve" transform="matrix(.80916246 0 0 .80932828 43.57523 188.78165)" font-size="16" font-family="OpenSans"><tspan y="33.266866" x="0 8.784 18.608002 28.416003 38.224004 48.048006 57.024007 63.552007 71.616008 80.51201 88.89601 98.70401 105.23201 114.20801 121.84001 129.47202 133.52002 143.18402">SubqueryExpression</tspan></text>
<path transform="matrix(.80916246,0,0,.80932828,106.50376,88.03229)" stroke-width="2" stroke-linecap="butt" stroke-miterlimit="4" stroke-linejoin="miter" fill="none" stroke="#333333" d="M0 107.68083V62.17229C0 56.83896 2.6666666 54.17229 8 54.17229H354.78263C360.11598 54.17229 362.78263 51.505624 362.78263 46.17229V13.672728"/>
<path transform="matrix(.00000000000000004459222,-.72839549,.7282462,.00000000000000004460136,400.0538,89.650959)" d="M-17.09091-8.545455 0 0-17.09091 8.545455V-8.545455Z" fill="#ffffff"/>
<path transform="matrix(.00000000000000004459222,-.72839549,.7282462,.00000000000000004460136,400.0538,89.650959)" stroke-width="2" stroke-linecap="butt" stroke-miterlimit="4" stroke-linejoin="miter" fill="none" stroke="#333333" d="M-17.09091-8.545455 0 0-17.09091 8.545455V-8.545455Z"/>
<path transform="matrix(.80916246,0,0,.80932828,372.75569,175.8324)" d="M8 0H165.35802C165.8833 0 166.40352 .051239246 166.9187 .15371774 167.43392 .25619624 167.93416 .40794487 168.41947 .60896369 168.90477 .8099825 169.3658 1.0564089 169.80255 1.348243 170.23932 1.6400771 170.64342 1.9717112 171.01486 2.3431457 171.38628 2.7145799 171.71791 3.1186772 172.00975 3.5554376 172.30159 3.9921983 172.54802 4.4532296 172.74904 4.938532 172.95005 5.4238345 173.10179 5.9240829 173.20429 6.439277 173.30678 6.954471 173.35802 7.474712 173.35802 8V80.53373C173.35802 81.05902 173.30678 81.579257 173.20429 82.094448 173.10179 82.60964 172.95005 83.10989 172.74903 83.59519 172.54802 84.08049 172.30159 84.54153 172.00975 84.97829 171.71791 85.41505 171.38628 85.81914 171.01486 86.190578 170.64342 86.562007 170.23932 86.89364 169.80255 87.18548 169.36579 87.47731 168.90476 87.72374 168.41945 87.92475 167.93415 88.12577 167.4339 88.27752 166.91872 88.380008 166.40354 88.48248 165.8833 88.53372 165.35802 88.53373H8C7.474712 88.53372 6.954471 88.48248 6.4392769 88.38001 5.9240825 88.27753 5.4238345 88.12577 4.938532 87.92476 4.4532296 87.72374 3.9921983 87.47732 3.5554376 87.185489 3.1186772 86.89364 2.7145799 86.562007 2.3431457 86.190578 1.9717112 85.81914 1.640077 85.41504 1.3482429 84.97828 1.0564089 84.54152 .8099825 84.08049 .60896369 83.59519 .40794487 83.10989 .25619624 82.60964 .15371774 82.094448 .051239246 81.579257 0 81.05902 0 80.53373V8C0 7.474712 .051239246 6.954471 .15371774 6.4392769 .25619624 5.9240825 .40794487 5.4238345 .60896369 4.938532 .8099825 4.4532296 1.0564089 3.9921983 1.348243 3.5554376 1.6400771 3.1186772 1.9717112 2.7145799 2.3431457 2.3431457 2.7145799 1.9717112 3.1186772 1.640077 3.5554376 1.3482429 3.9921983 1.0564089 4.4532296 .8099825 4.938532 .60896369 5.4238345 .40794487 5.9240829 .25619624 6.439277 .15371774 6.954471 .051239246 7.474712 0 8 0Z" fill="#ffffff"/>
<path transform="matrix(.80916246,0,0,.80932828,372.75569,175.8324)" stroke-width="2" stroke-linecap="round" stroke-linejoin="round" fill="none" stroke="#1a1a1a" d="M8 0H165.35802C165.8833 0 166.40352 .051239246 166.9187 .15371774 167.43392 .25619624 167.93416 .40794487 168.41947 .60896369 168.90477 .8099825 169.3658 1.0564089 169.80255 1.348243 170.23932 1.6400771 170.64342 1.9717112 171.01486 2.3431457 171.38628 2.7145799 171.71791 3.1186772 172.00975 3.5554376 172.30159 3.9921983 172.54802 4.4532296 172.74904 4.938532 172.95005 5.4238345 173.10179 5.9240829 173.20429 6.439277 173.30678 6.954471 173.35802 7.474712 173.35802 8V80.53373C173.35802 81.05902 173.30678 81.579257 173.20429 82.094448 173.10179 82.60964 172.95005 83.10989 172.74903 83.59519 172.54802 84.08049 172.30159 84.54153 172.00975 84.97829 171.71791 85.41505 171.38628 85.81914 171.01486 86.190578 170.64342 86.562007 170.23932 86.89364 169.80255 87.18548 169.36579 87.47731 168.90476 87.72374 168.41945 87.92475 167.93415 88.12577 167.4339 88.27752 166.91872 88.380008 166.40354 88.48248 165.8833 88.53372 165.35802 88.53373H8C7.474712 88.53372 6.954471 88.48248 6.4392769 88.38001 5.9240825 88.27753 5.4238345 88.12577 4.938532 87.92476 4.4532296 87.72374 3.9921983 87.47732 3.5554376 87.185489 3.1186772 86.89364 2.7145799 86.562007 2.3431457 86.190578 1.9717112 85.81914 1.640077 85.41504 1.3482429 84.97828 1.0564089 84.54152 .8099825 84.08049 .60896369 83.59519 .40794487 83.10989 .25619624 82.60964 .15371774 82.094448 .051239246 81.579257 0 81.05902 0 80.53373V8C0 7.474712 .051239246 6.954471 .15371774 6.4392769 .25619624 5.9240825 .40794487 5.4238345 .60896369 4.938532 .8099825 4.4532296 1.0564089 3.9921983 1.348243 3.5554376 1.6400771 3.1186772 1.9717112 2.7145799 2.3431457 2.3431457 2.7145799 1.9717112 3.1186772 1.640077 3.5554376 1.3482429 3.9921983 1.0564089 4.4532296 .8099825 4.938532 .60896369 5.4238345 .40794487 5.9240829 .25619624 6.439277 .15371774 6.954471 .051239246 7.474712 0 8 0Z"/>
<g id="layer_1" data-name="P">
</g>
<text fill="#1a1a1a" xml:space="preserve" transform="matrix(.80916246 0 0 .80932828 385.7023 188.78165)" font-size="16" font-family="OpenSans"><tspan y="33.266866" x="6.7571375 15.061138 19.109139 24.75714 33.73314 40.26114 49.15714 53.20514 62.10114 70.48514 80.29314 86.82114 95.797138 103.42914 111.06114 115.109149 124.77315">LiteralExpression</tspan></text>
<path transform="matrix(.80916246,0,0,.80932828,442.84956,88.03229)" stroke-width="2" stroke-linecap="butt" stroke-miterlimit="4" stroke-linejoin="miter" fill="none" stroke="#333333" d="M.053292537 107.68083V54.267065C.053292537 54.2493 .044410446 54.240419 .026646268 54.240419H.013323134C.0044410445 54.240419 0 54.235979 0 54.227094V13.672728"/>
<path transform="matrix(.00000000000000004459222,-.72839549,.7282462,.00000000000000004460136,442.84956,89.650959)" d="M-17.09091-8.545455 0 0-17.09091 8.545455V-8.545455Z" fill="#ffffff"/>
<path transform="matrix(.00000000000000004459222,-.72839549,.7282462,.00000000000000004460136,442.84956,89.650959)" stroke-width="2" stroke-linecap="butt" stroke-miterlimit="4" stroke-linejoin="miter" fill="none" stroke="#333333" d="M-17.09091-8.545455 0 0-17.09091 8.545455V-8.545455Z"/>
<path transform="matrix(.80916246,0,0,.80932828,538.08297,175.8324)" d="M8 0H165.35802C165.8833 0 166.40352 .051239246 166.9187 .15371774 167.43392 .25619624 167.93416 .40794487 168.41947 .60896369 168.90477 .8099825 169.3658 1.0564089 169.80255 1.348243 170.23932 1.6400771 170.64342 1.9717112 171.01486 2.3431457 171.38628 2.7145799 171.71791 3.1186772 172.00975 3.5554376 172.30159 3.9921983 172.54802 4.4532296 172.74904 4.938532 172.95005 5.4238345 173.10179 5.9240829 173.20429 6.439277 173.30678 6.954471 173.35802 7.474712 173.35802 8V80.53373C173.35802 81.05902 173.30678 81.579257 173.20429 82.094448 173.10179 82.60964 172.95005 83.10989 172.74903 83.59519 172.54802 84.08049 172.30159 84.54153 172.00975 84.97829 171.71791 85.41505 171.38628 85.81914 171.01486 86.190578 170.64342 86.562007 170.23932 86.89364 169.80255 87.18548 169.36579 87.47731 168.90476 87.72374 168.41945 87.92475 167.93415 88.12577 167.4339 88.27752 166.91872 88.380008 166.40354 88.48248 165.8833 88.53372 165.35802 88.53373H8C7.474712 88.53372 6.954471 88.48248 6.4392769 88.38001 5.9240825 88.27753 5.4238345 88.12577 4.938532 87.92476 4.4532296 87.72374 3.9921983 87.47732 3.5554376 87.185489 3.1186772 86.89364 2.7145799 86.562007 2.3431457 86.190578 1.9717112 85.81914 1.640077 85.41504 1.3482429 84.97828 1.0564089 84.54152 .8099825 84.08049 .60896369 83.59519 .40794487 83.10989 .25619624 82.60964 .15371774 82.094448 .051239246 81.579257 0 81.05902 0 80.53373V8C0 7.474712 .051239246 6.954471 .15371774 6.4392769 .25619624 5.9240825 .40794487 5.4238345 .60896369 4.938532 .8099825 4.4532296 1.0564089 3.9921983 1.348243 3.5554376 1.6400771 3.1186772 1.9717112 2.7145799 2.3431457 2.3431457 2.7145799 1.9717112 3.1186772 1.640077 3.5554376 1.3482429 3.9921983 1.0564089 4.4532296 .8099825 4.938532 .60896369 5.4238345 .40794487 5.9240829 .25619624 6.439277 .15371774 6.954471 .051239246 7.474712 0 8 0Z" fill="#ffffff"/>
<path transform="matrix(.80916246,0,0,.80932828,538.08297,175.8324)" stroke-width="2" stroke-linecap="round" stroke-linejoin="round" fill="none" stroke="#1a1a1a" d="M8 0H165.35802C165.8833 0 166.40352 .051239246 166.9187 .15371774 167.43392 .25619624 167.93416 .40794487 168.41947 .60896369 168.90477 .8099825 169.3658 1.0564089 169.80255 1.348243 170.23932 1.6400771 170.64342 1.9717112 171.01486 2.3431457 171.38628 2.7145799 171.71791 3.1186772 172.00975 3.5554376 172.30159 3.9921983 172.54802 4.4532296 172.74904 4.938532 172.95005 5.4238345 173.10179 5.9240829 173.20429 6.439277 173.30678 6.954471 173.35802 7.474712 173.35802 8V80.53373C173.35802 81.05902 173.30678 81.579257 173.20429 82.094448 173.10179 82.60964 172.95005 83.10989 172.74903 83.59519 172.54802 84.08049 172.30159 84.54153 172.00975 84.97829 171.71791 85.41505 171.38628 85.81914 171.01486 86.190578 170.64342 86.562007 170.23932 86.89364 169.80255 87.18548 169.36579 87.47731 168.90476 87.72374 168.41945 87.92475 167.93415 88.12577 167.4339 88.27752 166.91872 88.380008 166.40354 88.48248 165.8833 88.53372 165.35802 88.53373H8C7.474712 88.53372 6.954471 88.48248 6.4392769 88.38001 5.9240825 88.27753 5.4238345 88.12577 4.938532 87.92476 4.4532296 87.72374 3.9921983 87.47732 3.5554376 87.185489 3.1186772 86.89364 2.7145799 86.562007 2.3431457 86.190578 1.9717112 85.81914 1.640077 85.41504 1.3482429 84.97828 1.0564089 84.54152 .8099825 84.08049 .60896369 83.59519 .40794487 83.10989 .25619624 82.60964 .15371774 82.094448 .051239246 81.579257 0 81.05902 0 80.53373V8C0 7.474712 .051239246 6.954471 .15371774 6.4392769 .25619624 5.9240825 .40794487 5.4238345 .60896369 4.938532 .8099825 4.4532296 1.0564089 3.9921983 1.348243 3.5554376 1.6400771 3.1186772 1.9717112 2.7145799 2.3431457 2.3431457 2.7145799 1.9717112 3.1186772 1.640077 3.5554376 1.3482429 3.9921983 1.0564089 4.4532296 .8099825 4.938532 .60896369 5.4238345 .40794487 5.9240829 .25619624 6.439277 .15371774 6.954471 .051239246 7.474712 0 8 0Z"/>
<g id="layer_1" data-name="P">
</g>
<text fill="#1a1a1a" xml:space="preserve" transform="matrix(.80916246 0 0 .80932828 551.0295 188.78165)" font-size="16" font-family="OpenSans"><tspan y="33.266866" x=".6243248 10.256326 16.784327 26.448327 36.256326 46.080327 53.696329 59.344327 68.240329 76.62433 86.43233 92.96033 101.936328 109.56833 117.20033 121.24834 130.91234">ProductExpression</tspan></text>
<path transform="matrix(.80916246,0,0,.80932828,538.08297,322.58784)" d="M8 0H165.35802C165.8833 0 166.40352 .051239246 166.9187 .15371774 167.43392 .25619624 167.93416 .40794487 168.41947 .60896369 168.90477 .8099825 169.3658 1.0564089 169.80255 1.348243 170.23932 1.6400771 170.64342 1.9717112 171.01486 2.3431457 171.38628 2.7145799 171.71791 3.1186772 172.00975 3.5554376 172.30159 3.9921983 172.54802 4.4532296 172.74904 4.938532 172.95005 5.4238345 173.10179 5.9240829 173.20429 6.439277 173.30678 6.954471 173.35802 7.474712 173.35802 8V80.53373C173.35802 81.05902 173.30678 81.579257 173.20429 82.094448 173.10179 82.60964 172.95005 83.10989 172.74903 83.59519 172.54802 84.08049 172.30159 84.54153 172.00975 84.97829 171.71791 85.41505 171.38628 85.81914 171.01486 86.190578 170.64342 86.562007 170.23932 86.89364 169.80255 87.18548 169.36579 87.47731 168.90476 87.72374 168.41945 87.92475 167.93415 88.12577 167.4339 88.27752 166.91872 88.380008 166.40354 88.48248 165.8833 88.53372 165.35802 88.53373H8C7.474712 88.53372 6.954471 88.48248 6.4392769 88.38001 5.9240825 88.27753 5.4238345 88.12577 4.938532 87.92476 4.4532296 87.72374 3.9921983 87.47732 3.5554376 87.185489 3.1186772 86.89364 2.7145799 86.562007 2.3431457 86.190578 1.9717112 85.81914 1.640077 85.41504 1.3482429 84.97828 1.0564089 84.54152 .8099825 84.08049 .60896369 83.59519 .40794487 83.10989 .25619624 82.60964 .15371774 82.094448 .051239246 81.579257 0 81.05902 0 80.53373V8C0 7.474712 .051239246 6.954471 .15371774 6.4392769 .25619624 5.9240825 .40794487 5.4238345 .60896369 4.938532 .8099825 4.4532296 1.0564089 3.9921983 1.348243 3.5554376 1.6400771 3.1186772 1.9717112 2.7145799 2.3431457 2.3431457 2.7145799 1.9717112 3.1186772 1.640077 3.5554376 1.3482429 3.9921983 1.0564089 4.4532296 .8099825 4.938532 .60896369 5.4238345 .40794487 5.9240829 .25619624 6.439277 .15371774 6.954471 .051239246 7.474712 0 8 0Z" fill="#ffffff"/>
<path transform="matrix(.80916246,0,0,.80932828,538.08297,322.58784)" stroke-width="2" stroke-linecap="round" stroke-linejoin="round" fill="none" stroke="#1a1a1a" d="M8 0H165.35802C165.8833 0 166.40352 .051239246 166.9187 .15371774 167.43392 .25619624 167.93416 .40794487 168.41947 .60896369 168.90477 .8099825 169.3658 1.0564089 169.80255 1.348243 170.23932 1.6400771 170.64342 1.9717112 171.01486 2.3431457 171.38628 2.7145799 171.71791 3.1186772 172.00975 3.5554376 172.30159 3.9921983 172.54802 4.4532296 172.74904 4.938532 172.95005 5.4238345 173.10179 5.9240829 173.20429 6.439277 173.30678 6.954471 173.35802 7.474712 173.35802 8V80.53373C173.35802 81.05902 173.30678 81.579257 173.20429 82.094448 173.10179 82.60964 172.95005 83.10989 172.74903 83.59519 172.54802 84.08049 172.30159 84.54153 172.00975 84.97829 171.71791 85.41505 171.38628 85.81914 171.01486 86.190578 170.64342 86.562007 170.23932 86.89364 169.80255 87.18548 169.36579 87.47731 168.90476 87.72374 168.41945 87.92475 167.93415 88.12577 167.4339 88.27752 166.91872 88.380008 166.40354 88.48248 165.8833 88.53372 165.35802 88.53373H8C7.474712 88.53372 6.954471 88.48248 6.4392769 88.38001 5.9240825 88.27753 5.4238345 88.12577 4.938532 87.92476 4.4532296 87.72374 3.9921983 87.47732 3.5554376 87.185489 3.1186772 86.89364 2.7145799 86.562007 2.3431457 86.190578 1.9717112 85.81914 1.640077 85.41504 1.3482429 84.97828 1.0564089 84.54152 .8099825 84.08049 .60896369 83.59519 .40794487 83.10989 .25619624 82.60964 .15371774 82.094448 .051239246 81.579257 0 81.05902 0 80.53373V8C0 7.474712 .051239246 6.954471 .15371774 6.4392769 .25619624 5.9240825 .40794487 5.4238345 .60896369 4.938532 .8099825 4.4532296 1.0564089 3.9921983 1.348243 3.5554376 1.6400771 3.1186772 1.9717112 2.7145799 2.3431457 2.3431457 2.7145799 1.9717112 3.1186772 1.640077 3.5554376 1.3482429 3.9921983 1.0564089 4.4532296 .8099825 4.938532 .60896369 5.4238345 .40794487 5.9240829 .25619624 6.439277 .15371774 6.954471 .051239246 7.474712 0 8 0Z"/>
<g id="layer_1" data-name="P">
</g>
<text fill="#1a1a1a" xml:space="preserve" transform="matrix(.80916246 0 0 .80932828 551.0295 335.5371)" font-size="16" font-family="OpenSans"><tspan y="33.266866" x="38.331357 46.587358 56.411359 66.23536 73.85136 79.49936 83.54736 93.211368">Function</tspan></text>
<path transform="matrix(.80916246,0,0,.80932828,608.2217,247.48361)" stroke-width="2" stroke-linecap="butt" stroke-miterlimit="4" stroke-linejoin="miter" fill="none" stroke="#333333" d="M0 91.99563V13.672728"/>
<path transform="matrix(.00000000000000004459222,-.72839549,.7282462,.00000000000000004460136,608.2217,249.1023)" d="M-17.09091-8.545455 0 0-17.09091 8.545455V-8.545455Z" fill="#ffffff"/>
<path transform="matrix(.00000000000000004459222,-.72839549,.7282462,.00000000000000004460136,608.2217,249.1023)" stroke-width="2" stroke-linecap="butt" stroke-miterlimit="4" stroke-linejoin="miter" fill="none" stroke="#333333" d="M-17.09091-8.545455 0 0-17.09091 8.545455V-8.545455Z"/>
<path transform="matrix(.80916246,0,0,.80932828,703.4401,175.8324)" d="M8 0H165.35802C165.8833 0 166.40352 .051239246 166.9187 .15371774 167.43392 .25619624 167.93416 .40794487 168.41947 .60896369 168.90477 .8099825 169.3658 1.0564089 169.80255 1.348243 170.23932 1.6400771 170.64342 1.9717112 171.01486 2.3431457 171.38628 2.7145799 171.71791 3.1186772 172.00975 3.5554376 172.30159 3.9921983 172.54802 4.4532296 172.74904 4.938532 172.95005 5.4238345 173.10179 5.9240829 173.20429 6.439277 173.30678 6.954471 173.35802 7.474712 173.35802 8V80.53373C173.35802 81.05902 173.30678 81.579257 173.20429 82.094448 173.10179 82.60964 172.95005 83.10989 172.74903 83.59519 172.54802 84.08049 172.30159 84.54153 172.00975 84.97829 171.71791 85.41505 171.38628 85.81914 171.01486 86.190578 170.64342 86.562007 170.23932 86.89364 169.80255 87.18548 169.36579 87.47731 168.90476 87.72374 168.41945 87.92475 167.93415 88.12577 167.4339 88.27752 166.91872 88.380008 166.40354 88.48248 165.8833 88.53372 165.35802 88.53373H8C7.474712 88.53372 6.954471 88.48248 6.4392769 88.38001 5.9240825 88.27753 5.4238345 88.12577 4.938532 87.92476 4.4532296 87.72374 3.9921983 87.47732 3.5554376 87.185489 3.1186772 86.89364 2.7145799 86.562007 2.3431457 86.190578 1.9717112 85.81914 1.640077 85.41504 1.3482429 84.97828 1.0564089 84.54152 .8099825 84.08049 .60896369 83.59519 .40794487 83.10989 .25619624 82.60964 .15371774 82.094448 .051239246 81.579257 0 81.05902 0 80.53373V8C0 7.474712 .051239246 6.954471 .15371774 6.4392769 .25619624 5.9240825 .40794487 5.4238345 .60896369 4.938532 .8099825 4.4532296 1.0564089 3.9921983 1.348243 3.5554376 1.6400771 3.1186772 1.9717112 2.7145799 2.3431457 2.3431457 2.7145799 1.9717112 3.1186772 1.640077 3.5554376 1.3482429 3.9921983 1.0564089 4.4532296 .8099825 4.938532 .60896369 5.4238345 .40794487 5.9240829 .25619624 6.439277 .15371774 6.954471 .051239246 7.474712 0 8 0Z" fill="#ffffff"/>
<path transform="matrix(.80916246,0,0,.80932828,703.4401,175.8324)" stroke-width="2" stroke-linecap="round" stroke-linejoin="round" fill="none" stroke="#1a1a1a" d="M8 0H165.35802C165.8833 0 166.40352 .051239246 166.9187 .15371774 167.43392 .25619624 167.93416 .40794487 168.41947 .60896369 168.90477 .8099825 169.3658 1.0564089 169.80255 1.348243 170.23932 1.6400771 170.64342 1.9717112 171.01486 2.3431457 171.38628 2.7145799 171.71791 3.1186772 172.00975 3.5554376 172.30159 3.9921983 172.54802 4.4532296 172.74904 4.938532 172.95005 5.4238345 173.10179 5.9240829 173.20429 6.439277 173.30678 6.954471 173.35802 7.474712 173.35802 8V80.53373C173.35802 81.05902 173.30678 81.579257 173.20429 82.094448 173.10179 82.60964 172.95005 83.10989 172.74903 83.59519 172.54802 84.08049 172.30159 84.54153 172.00975 84.97829 171.71791 85.41505 171.38628 85.81914 171.01486 86.190578 170.64342 86.562007 170.23932 86.89364 169.80255 87.18548 169.36579 87.47731 168.90476 87.72374 168.41945 87.92475 167.93415 88.12577 167.4339 88.27752 166.91872 88.380008 166.40354 88.48248 165.8833 88.53372 165.35802 88.53373H8C7.474712 88.53372 6.954471 88.48248 6.4392769 88.38001 5.9240825 88.27753 5.4238345 88.12577 4.938532 87.92476 4.4532296 87.72374 3.9921983 87.47732 3.5554376 87.185489 3.1186772 86.89364 2.7145799 86.562007 2.3431457 86.190578 1.9717112 85.81914 1.640077 85.41504 1.3482429 84.97828 1.0564089 84.54152 .8099825 84.08049 .60896369 83.59519 .40794487 83.10989 .25619624 82.60964 .15371774 82.094448 .051239246 81.579257 0 81.05902 0 80.53373V8C0 7.474712 .051239246 6.954471 .15371774 6.4392769 .25619624 5.9240825 .40794487 5.4238345 .60896369 4.938532 .8099825 4.4532296 1.0564089 3.9921983 1.348243 3.5554376 1.6400771 3.1186772 1.9717112 2.7145799 2.3431457 2.3431457 2.7145799 1.9717112 3.1186772 1.640077 3.5554376 1.3482429 3.9921983 1.0564089 4.4532296 .8099825 4.938532 .60896369 5.4238345 .40794487 5.9240829 .25619624 6.439277 .15371774 6.954471 .051239246 7.474712 0 8 0Z"/>
<g id="layer_1" data-name="P">
</g>
<text fill="#1a1a1a" xml:space="preserve" transform="matrix(.80916246 0 0 .80932828 716.38668 188.78165)" font-size="16" font-family="OpenSans"><tspan y="33.266866" x="25.675107 35.80311 44.57111 53.33911 59.86711 68.84311 77.61111 86.50711 92.15511 96.20311 105.86711">Aggregation</tspan></text>
<path transform="matrix(.80916246,0,0,.80932828,478.96739,88.03229)" stroke-width="2" stroke-linecap="butt" stroke-miterlimit="4" stroke-linejoin="miter" fill="none" stroke="#333333" d="M159.73767 107.68083V90.142047C159.73767 84.80871 157.071 82.142047 151.73767 82.142047H8C2.6666666 82.142047 0 79.47538 0 74.142047V13.672728"/>
<path transform="matrix(.00000000000000004459222,-.72839549,.7282462,.00000000000000004460136,478.96739,89.650959)" d="M-17.09091-8.545455 0 0-17.09091 8.545455V-8.545455Z" fill="#ffffff"/>
<path transform="matrix(.00000000000000004459222,-.72839549,.7282462,.00000000000000004460136,478.96739,89.650959)" stroke-width="2" stroke-linecap="butt" stroke-miterlimit="4" stroke-linejoin="miter" fill="none" stroke="#333333" d="M-17.09091-8.545455 0 0-17.09091 8.545455V-8.545455Z"/>
<path transform="matrix(.80916246,0,0,.80932828,507.52159,88.03229)" stroke-width="2" stroke-linecap="butt" stroke-miterlimit="4" stroke-linejoin="miter" fill="none" stroke="#333333" d="M328.80223 107.68083V64.36728C328.80223 59.033948 326.13557 56.36728 320.80223 56.36728H8C2.6666666 56.36728 0 53.70061 0 48.36728V13.672728"/>
<path transform="matrix(.00000000000000004459222,-.72839549,.7282462,.00000000000000004460136,507.52159,89.650959)" d="M-17.09091-8.545455 0 0-17.09091 8.545455V-8.545455Z" fill="#ffffff"/>
<path transform="matrix(.00000000000000004459222,-.72839549,.7282462,.00000000000000004460136,507.52159,89.650959)" stroke-width="2" stroke-linecap="butt" stroke-miterlimit="4" stroke-linejoin="miter" fill="none" stroke="#333333" d="M-17.09091-8.545455 0 0-17.09091 8.545455V-8.545455Z"/>
<path transform="matrix(.80916246,0,0,.80932828,277.57478,88.03229)" stroke-width="2" stroke-linecap="butt" stroke-miterlimit="4" stroke-linejoin="miter" fill="none" stroke="#333333" d="M0 107.68083V86.480838C0 81.1475 2.6666666 78.480838 8 78.480838H166.11219C171.44551 78.480838 174.11219 75.81417 174.11219 70.480838V13.672728"/>
<path transform="matrix(.00000000000000004459222,-.72839549,.7282462,.00000000000000004460136,418.4598,89.650959)" d="M-17.09091-8.545455 0 0-17.09091 8.545455V-8.545455Z" fill="#ffffff"/>
<path transform="matrix(.00000000000000004459222,-.72839549,.7282462,.00000000000000004460136,418.4598,89.650959)" stroke-width="2" stroke-linecap="butt" stroke-miterlimit="4" stroke-linejoin="miter" fill="none" stroke="#333333" d="M-17.09091-8.545455 0 0-17.09091 8.545455V-8.545455Z"/>
</g>
</svg>
