<svg xmlns="http://www.w3.org/2000/svg" xmlns:xlink="http://www.w3.org/1999/xlink" version="1.1" width="866.88pt" height="666.95999pt" viewBox="0 0 866.88 666.95999">
<defs>
<clipPath id="clip_0">
<path transform="matrix(.24,0,0,.24,0,0)" d="M0 0H3612.5V2776.4464H0Z" fill-rule="evenodd"/>
</clipPath>
<clipPath id="clip_1">
<path transform="matrix(.24,0,0,.24,0,0)" d="M0 0H3612.493V2776.4464H0Z" fill-rule="evenodd"/>
</clipPath>
<clipPath id="clip_2">
<path transform="matrix(.24,0,0,.24,0,0)" d="M0 0H3612.5V2776.4464H0Z" fill-rule="evenodd"/>
</clipPath>
</defs>
<g clip-path="url(#clip_0)">
<path transform="matrix(.7487046,0,0,.7487046,0,0)" d="M0 0H1158V890H0Z" fill="#ffffff"/>
</g>
<g clip-path="url(#clip_1)">
<path transform="matrix(1.2877017,0,0,1.2868016,0,0)" d="M0 0H673.29129V517.8368H0Z" fill="#ffffff"/>
</g>
<g clip-path="url(#clip_2)">
<path transform="matrix(1.2877041,0,0,1.2867936,331.23106,24.440678)" d="M8 0H160C160.52529 0 161.04553 .051239246 161.56072 .15371774 162.07593 .25619624 162.57617 .40794487 163.06147 .60896369 163.54677 .8099825 164.0078 1.0564089 164.44457 1.348243 164.88132 1.6400771 165.2854 1.9717112 165.65685 2.3431457 166.02828 2.7145799 166.35991 3.1186772 166.65174 3.5554376 166.94356 3.9921983 167.18999 4.4532296 167.39102 4.938532 167.59204 5.4238345 167.74379 5.9240829 167.84626 6.439277 167.94875 6.954471 167.99999 7.474712 168 8V104C167.99999 104.52528 167.94875 105.045528 167.84626 105.560718 167.74379 106.075908 167.59204 106.57616 167.39102 107.061458 167.18999 107.54675 166.94356 108.00778 166.65174 108.44454 166.35991 108.8813 166.02828 109.28541 165.65685 109.656848 165.2854 110.02828 164.88132 110.35992 164.44457 110.65175 164.0078 110.94358 163.54677 111.19 163.06147 111.391017 162.57617 111.59203 162.07593 111.74378 161.56072 111.84627 161.04553 111.948749 160.52529 111.99999 160 112H8C7.474712 111.99999 6.954471 111.948749 6.4392769 111.84627 5.9240825 111.74378 5.4238345 111.59203 4.938532 111.391017 4.4532296 111.19 3.9921983 110.94357 3.5554376 110.65174 3.1186772 110.35991 2.7145799 110.02828 2.3431457 109.656848 1.9717112 109.28541 1.640077 108.88131 1.3482429 108.44455 1.0564089 108.00779 .8099825 107.54675 .60896369 107.061458 .40794487 106.57616 .25619624 106.075908 .15371774 105.560718 .051239246 105.045528 0 104.52528 0 104V8C0 7.474712 .051239246 6.954471 .15371774 6.4392769 .25619624 5.9240825 .40794487 5.4238345 .60896369 4.938532 .8099825 4.4532296 1.0564089 3.9921983 1.348243 3.5554376 1.6400771 3.1186772 1.9717112 2.7145799 2.3431457 2.3431457 2.7145799 1.9717112 3.1186772 1.640077 3.5554376 1.3482429 3.9921983 1.0564089 4.4532296 .8099825 4.938532 .60896369 5.4238345 .40794487 5.9240829 .25619624 6.439277 .15371774 6.954471 .051239246 7.474712 0 8 0Z" fill="#ffffff"/>
<path transform="matrix(1.2877041,0,0,1.2867936,331.23106,24.440678)" stroke-width="2" stroke-linecap="round" stroke-linejoin="round" fill="none" stroke="#1a1a1a" d="M8 0H160C160.52529 0 161.04553 .051239246 161.56072 .15371774 162.07593 .25619624 162.57617 .40794487 163.06147 .60896369 163.54677 .8099825 164.0078 1.0564089 164.44457 1.348243 164.88132 1.6400771 165.2854 1.9717112 165.65685 2.3431457 166.02828 2.7145799 166.35991 3.1186772 166.65174 3.5554376 166.94356 3.9921983 167.18999 4.4532296 167.39102 4.938532 167.59204 5.4238345 167.74379 5.9240829 167.84626 6.439277 167.94875 6.954471 167.99999 7.474712 168 8V104C167.99999 104.52528 167.94875 105.045528 167.84626 105.560718 167.74379 106.075908 167.59204 106.57616 167.39102 107.061458 167.18999 107.54675 166.94356 108.00778 166.65174 108.44454 166.35991 108.8813 166.02828 109.28541 165.65685 109.656848 165.2854 110.02828 164.88132 110.35992 164.44457 110.65175 164.0078 110.94358 163.54677 111.19 163.06147 111.391017 162.57617 111.59203 162.07593 111.74378 161.56072 111.84627 161.04553 111.948749 160.52529 111.99999 160 112H8C7.474712 111.99999 6.954471 111.948749 6.4392769 111.84627 5.9240825 111.74378 5.4238345 111.59203 4.938532 111.391017 4.4532296 111.19 3.9921983 110.94357 3.5554376 110.65174 3.1186772 110.35991 2.7145799 110.02828 2.3431457 109.656848 1.9717112 109.28541 1.640077 108.88131 1.3482429 108.44455 1.0564089 108.00779 .8099825 107.54675 .60896369 107.061458 .40794487 106.57616 .25619624 106.075908 .15371774 105.560718 .051239246 105.045528 0 104.52528 0 104V8C0 7.474712 .051239246 6.954471 .15371774 6.4392769 .25619624 5.9240825 .40794487 5.4238345 .60896369 4.938532 .8099825 4.4532296 1.0564089 3.9921983 1.348243 3.5554376 1.6400771 3.1186772 1.9717112 2.7145799 2.3431457 2.3431457 2.7145799 1.9717112 3.1186772 1.640077 3.5554376 1.3482429 3.9921983 1.0564089 4.4532296 .8099825 4.938532 .60896369 5.4238345 .40794487 5.9240829 .25619624 6.439277 .15371774 6.954471 .051239246 7.474712 0 8 0Z"/>
<g id="layer_1" data-name="P">
</g>
<text fill="#1a1a1a" xml:space="preserve" transform="matrix(1.2877041 0 0 1.2867936 351.83433 45.029378)" font-size="14" font-family="OpenSans"><tspan y="44" x="41.315919 49.96792 57.82192 61.36392 69.14792 74.08992 77.63192 86.08792">Relation</tspan></text>
<path transform="matrix(1.2877041,0,0,1.2867936,179.48825,258.74494)" d="M8 0H160C160.52529 0 161.04553 .051239246 161.56072 .15371774 162.07593 .25619624 162.57617 .40794487 163.06147 .60896369 163.54677 .8099825 164.0078 1.0564089 164.44457 1.348243 164.88132 1.6400771 165.2854 1.9717112 165.65685 2.3431457 166.02828 2.7145799 166.35991 3.1186772 166.65174 3.5554376 166.94356 3.9921983 167.18999 4.4532296 167.39102 4.938532 167.59204 5.4238345 167.74379 5.9240829 167.84626 6.439277 167.94875 6.954471 167.99999 7.474712 168 8V104C167.99999 104.52528 167.94875 105.045528 167.84626 105.560718 167.74379 106.075908 167.59204 106.57616 167.39102 107.061458 167.18999 107.54675 166.94356 108.00778 166.65174 108.44454 166.35991 108.8813 166.02828 109.28541 165.65685 109.656848 165.2854 110.02828 164.88132 110.35992 164.44457 110.65175 164.0078 110.94358 163.54677 111.19 163.06147 111.391017 162.57617 111.59203 162.07593 111.74378 161.56072 111.84627 161.04553 111.948749 160.52529 111.99999 160 112H8C7.474712 111.99999 6.954471 111.948749 6.4392769 111.84627 5.9240825 111.74378 5.4238345 111.59203 4.938532 111.391017 4.4532296 111.19 3.9921983 110.94357 3.5554376 110.65174 3.1186772 110.35991 2.7145799 110.02828 2.3431457 109.656848 1.9717112 109.28541 1.640077 108.88131 1.3482429 108.44455 1.0564089 108.00779 .8099825 107.54675 .60896369 107.061458 .40794487 106.57616 .25619624 106.075908 .15371774 105.560718 .051239246 105.045528 0 104.52528 0 104V8C0 7.474712 .051239246 6.954471 .15371774 6.4392769 .25619624 5.9240825 .40794487 5.4238345 .60896369 4.938532 .8099825 4.4532296 1.0564089 3.9921983 1.348243 3.5554376 1.6400771 3.1186772 1.9717112 2.7145799 2.3431457 2.3431457 2.7145799 1.9717112 3.1186772 1.640077 3.5554376 1.3482429 3.9921983 1.0564089 4.4532296 .8099825 4.938532 .60896369 5.4238345 .40794487 5.9240829 .25619624 6.439277 .15371774 6.954471 .051239246 7.474712 0 8 0Z" fill="#ffffff"/>
<path transform="matrix(1.2877041,0,0,1.2867936,179.48825,258.74494)" stroke-width="2" stroke-linecap="round" stroke-linejoin="round" fill="none" stroke="#1a1a1a" d="M8 0H160C160.52529 0 161.04553 .051239246 161.56072 .15371774 162.07593 .25619624 162.57617 .40794487 163.06147 .60896369 163.54677 .8099825 164.0078 1.0564089 164.44457 1.348243 164.88132 1.6400771 165.2854 1.9717112 165.65685 2.3431457 166.02828 2.7145799 166.35991 3.1186772 166.65174 3.5554376 166.94356 3.9921983 167.18999 4.4532296 167.39102 4.938532 167.59204 5.4238345 167.74379 5.9240829 167.84626 6.439277 167.94875 6.954471 167.99999 7.474712 168 8V104C167.99999 104.52528 167.94875 105.045528 167.84626 105.560718 167.74379 106.075908 167.59204 106.57616 167.39102 107.061458 167.18999 107.54675 166.94356 108.00778 166.65174 108.44454 166.35991 108.8813 166.02828 109.28541 165.65685 109.656848 165.2854 110.02828 164.88132 110.35992 164.44457 110.65175 164.0078 110.94358 163.54677 111.19 163.06147 111.391017 162.57617 111.59203 162.07593 111.74378 161.56072 111.84627 161.04553 111.948749 160.52529 111.99999 160 112H8C7.474712 111.99999 6.954471 111.948749 6.4392769 111.84627 5.9240825 111.74378 5.4238345 111.59203 4.938532 111.391017 4.4532296 111.19 3.9921983 110.94357 3.5554376 110.65174 3.1186772 110.35991 2.7145799 110.02828 2.3431457 109.656848 1.9717112 109.28541 1.640077 108.88131 1.3482429 108.44455 1.0564089 108.00779 .8099825 107.54675 .60896369 107.061458 .40794487 106.57616 .25619624 106.075908 .15371774 105.560718 .051239246 105.045528 0 104.52528 0 104V8C0 7.474712 .051239246 6.954471 .15371774 6.4392769 .25619624 5.9240825 .40794487 5.4238345 .60896369 4.938532 .8099825 4.4532296 1.0564089 3.9921983 1.348243 3.5554376 1.6400771 3.1186772 1.9717112 2.7145799 2.3431457 2.3431457 2.7145799 1.9717112 3.1186772 1.640077 3.5554376 1.3482429 3.9921983 1.0564089 4.4532296 .8099825 4.938532 .60896369 5.4238345 .40794487 5.9240829 .25619624 6.439277 .15371774 6.954471 .051239246 7.474712 0 8 0Z"/>
<g id="layer_1" data-name="P">
</g>
<text fill="#1a1a1a" xml:space="preserve" transform="matrix(1.2877041 0 0 1.2867936 200.0915 279.33363)" font-size="14" font-family="OpenSans"><tspan y="44" x="23.562989 31.304989 39.08899 47.67099 51.21299 59.06699 67.718997 75.573 79.115 86.899 91.841 95.383 103.839008">TableRelation</tspan></text>
<path transform="matrix(1.2877041,0,0,1.2867936,287.6545,168.56287)" stroke-width="2" stroke-linecap="butt" stroke-miterlimit="4" stroke-linejoin="miter" fill="none" stroke="#333333" d="M0 69.279628V43.039815C0 37.706483 2.6666666 35.039815 8 35.039815H71.89328C77.226619 35.039815 79.89328 32.373147 79.89328 27.039814V13.672728"/>
<path transform="matrix(.00000000000000007096422,-1.1581143,1.1589336,.00000000000000007091405,390.5334,171.13645)" d="M-17.09091-8.545455 0 0-17.09091 8.545455V-8.545455Z" fill="#ffffff"/>
<path transform="matrix(.00000000000000007096422,-1.1581143,1.1589336,.00000000000000007091405,390.5334,171.13645)" stroke-width="2" stroke-linecap="butt" stroke-miterlimit="4" stroke-linejoin="miter" fill="none" stroke="#333333" d="M-17.09091-8.545455 0 0-17.09091 8.545455V-8.545455Z"/>
<path transform="matrix(1.2877041,0,0,1.2867936,25.169396,492.93696)" d="M8 0H160C160.52529 0 161.04553 .051239246 161.56072 .15371774 162.07593 .25619624 162.57617 .40794487 163.06147 .60896369 163.54677 .8099825 164.0078 1.0564089 164.44457 1.348243 164.88132 1.6400771 165.2854 1.9717112 165.65685 2.3431457 166.02828 2.7145799 166.35991 3.1186772 166.65174 3.5554376 166.94356 3.9921983 167.18999 4.4532296 167.39102 4.938532 167.59204 5.4238345 167.74379 5.9240829 167.84626 6.439277 167.94875 6.954471 167.99999 7.474712 168 8V104C167.99999 104.52528 167.94875 105.045528 167.84626 105.560718 167.74379 106.075908 167.59204 106.57616 167.39102 107.061458 167.18999 107.54675 166.94356 108.00778 166.65174 108.44454 166.35991 108.8813 166.02828 109.28541 165.65685 109.656848 165.2854 110.02828 164.88132 110.35992 164.44457 110.65175 164.0078 110.94358 163.54677 111.19 163.06147 111.391017 162.57617 111.59203 162.07593 111.74378 161.56072 111.84627 161.04553 111.948749 160.52529 111.99999 160 112H8C7.474712 111.99999 6.954471 111.948749 6.4392769 111.84627 5.9240825 111.74378 5.4238345 111.59203 4.938532 111.391017 4.4532296 111.19 3.9921983 110.94357 3.5554376 110.65174 3.1186772 110.35991 2.7145799 110.02828 2.3431457 109.656848 1.9717112 109.28541 1.640077 108.88131 1.3482429 108.44455 1.0564089 108.00779 .8099825 107.54675 .60896369 107.061458 .40794487 106.57616 .25619624 106.075908 .15371774 105.560718 .051239246 105.045528 0 104.52528 0 104V8C0 7.474712 .051239246 6.954471 .15371774 6.4392769 .25619624 5.9240825 .40794487 5.4238345 .60896369 4.938532 .8099825 4.4532296 1.0564089 3.9921983 1.348243 3.5554376 1.6400771 3.1186772 1.9717112 2.7145799 2.3431457 2.3431457 2.7145799 1.9717112 3.1186772 1.640077 3.5554376 1.3482429 3.9921983 1.0564089 4.4532296 .8099825 4.938532 .60896369 5.4238345 .40794487 5.9240829 .25619624 6.439277 .15371774 6.954471 .051239246 7.474712 0 8 0Z" fill="#ffffff"/>
<path transform="matrix(1.2877041,0,0,1.2867936,25.169396,492.93696)" stroke-width="2" stroke-linecap="round" stroke-linejoin="round" fill="none" stroke="#1a1a1a" d="M8 0H160C160.52529 0 161.04553 .051239246 161.56072 .15371774 162.07593 .25619624 162.57617 .40794487 163.06147 .60896369 163.54677 .8099825 164.0078 1.0564089 164.44457 1.348243 164.88132 1.6400771 165.2854 1.9717112 165.65685 2.3431457 166.02828 2.7145799 166.35991 3.1186772 166.65174 3.5554376 166.94356 3.9921983 167.18999 4.4532296 167.39102 4.938532 167.59204 5.4238345 167.74379 5.9240829 167.84626 6.439277 167.94875 6.954471 167.99999 7.474712 168 8V104C167.99999 104.52528 167.94875 105.045528 167.84626 105.560718 167.74379 106.075908 167.59204 106.57616 167.39102 107.061458 167.18999 107.54675 166.94356 108.00778 166.65174 108.44454 166.35991 108.8813 166.02828 109.28541 165.65685 109.656848 165.2854 110.02828 164.88132 110.35992 164.44457 110.65175 164.0078 110.94358 163.54677 111.19 163.06147 111.391017 162.57617 111.59203 162.07593 111.74378 161.56072 111.84627 161.04553 111.948749 160.52529 111.99999 160 112H8C7.474712 111.99999 6.954471 111.948749 6.4392769 111.84627 5.9240825 111.74378 5.4238345 111.59203 4.938532 111.391017 4.4532296 111.19 3.9921983 110.94357 3.5554376 110.65174 3.1186772 110.35991 2.7145799 110.02828 2.3431457 109.656848 1.9717112 109.28541 1.640077 108.88131 1.3482429 108.44455 1.0564089 108.00779 .8099825 107.54675 .60896369 107.061458 .40794487 106.57616 .25619624 106.075908 .15371774 105.560718 .051239246 105.045528 0 104.52528 0 104V8C0 7.474712 .051239246 6.954471 .15371774 6.4392769 .25619624 5.9240825 .40794487 5.4238345 .60896369 4.938532 .8099825 4.4532296 1.0564089 3.9921983 1.348243 3.5554376 1.6400771 3.1186772 1.9717112 2.7145799 2.3431457 2.3431457 2.7145799 1.9717112 3.1186772 1.640077 3.5554376 1.3482429 3.9921983 1.0564089 4.4532296 .8099825 4.938532 .60896369 5.4238345 .40794487 5.9240829 .25619624 6.439277 .15371774 6.954471 .051239246 7.474712 0 8 0Z"/>
<g id="layer_1" data-name="P">
</g>
<text fill="#1a1a1a" xml:space="preserve" transform="matrix(1.2877041 0 0 1.2867936 45.77266 513.52566)" font-size="14" font-family="OpenSans"><tspan y="44" x="24.106446 31.330447 37.042448 45.498449 58.518449 67.17045 75.02445 78.56645 86.35046 91.29246 94.83446 103.29046">FromRelation</tspan></text>
<path transform="matrix(1.2877041,0,0,1.2867936,133.33565,402.85963)" stroke-width="2" stroke-linecap="butt" stroke-miterlimit="4" stroke-linejoin="miter" fill="none" stroke="#333333" d="M0 69.2V43C0 37.666669 2.6666666 35 8 35H58.763017C64.09635 35 66.763019 32.333333 66.763019 27V13.672728"/>
<path transform="matrix(.00000000000000007096422,-1.1581143,1.1589336,.00000000000000007091405,219.30664,405.43324)" d="M-17.09091-8.545455 0 0-17.09091 8.545455V-8.545455Z" fill="#ffffff"/>
<path transform="matrix(.00000000000000007096422,-1.1581143,1.1589336,.00000000000000007091405,219.30664,405.43324)" stroke-width="2" stroke-linecap="butt" stroke-miterlimit="4" stroke-linejoin="miter" fill="none" stroke="#333333" d="M-17.09091-8.545455 0 0-17.09091 8.545455V-8.545455Z"/>
<path transform="matrix(1.2877041,0,0,1.2867936,331.23106,492.93696)" d="M8 0H160C160.52529 0 161.04553 .051239246 161.56072 .15371774 162.07593 .25619624 162.57617 .40794487 163.06147 .60896369 163.54677 .8099825 164.0078 1.0564089 164.44457 1.348243 164.88132 1.6400771 165.2854 1.9717112 165.65685 2.3431457 166.02828 2.7145799 166.35991 3.1186772 166.65174 3.5554376 166.94356 3.9921983 167.18999 4.4532296 167.39102 4.938532 167.59204 5.4238345 167.74379 5.9240829 167.84626 6.439277 167.94875 6.954471 167.99999 7.474712 168 8V104C167.99999 104.52528 167.94875 105.045528 167.84626 105.560718 167.74379 106.075908 167.59204 106.57616 167.39102 107.061458 167.18999 107.54675 166.94356 108.00778 166.65174 108.44454 166.35991 108.8813 166.02828 109.28541 165.65685 109.656848 165.2854 110.02828 164.88132 110.35992 164.44457 110.65175 164.0078 110.94358 163.54677 111.19 163.06147 111.391017 162.57617 111.59203 162.07593 111.74378 161.56072 111.84627 161.04553 111.948749 160.52529 111.99999 160 112H8C7.474712 111.99999 6.954471 111.948749 6.4392769 111.84627 5.9240825 111.74378 5.4238345 111.59203 4.938532 111.391017 4.4532296 111.19 3.9921983 110.94357 3.5554376 110.65174 3.1186772 110.35991 2.7145799 110.02828 2.3431457 109.656848 1.9717112 109.28541 1.640077 108.88131 1.3482429 108.44455 1.0564089 108.00779 .8099825 107.54675 .60896369 107.061458 .40794487 106.57616 .25619624 106.075908 .15371774 105.560718 .051239246 105.045528 0 104.52528 0 104V8C0 7.474712 .051239246 6.954471 .15371774 6.4392769 .25619624 5.9240825 .40794487 5.4238345 .60896369 4.938532 .8099825 4.4532296 1.0564089 3.9921983 1.348243 3.5554376 1.6400771 3.1186772 1.9717112 2.7145799 2.3431457 2.3431457 2.7145799 1.9717112 3.1186772 1.640077 3.5554376 1.3482429 3.9921983 1.0564089 4.4532296 .8099825 4.938532 .60896369 5.4238345 .40794487 5.9240829 .25619624 6.439277 .15371774 6.954471 .051239246 7.474712 0 8 0Z" fill="#ffffff"/>
<path transform="matrix(1.2877041,0,0,1.2867936,331.23106,492.93696)" stroke-width="2" stroke-linecap="round" stroke-linejoin="round" fill="none" stroke="#1a1a1a" d="M8 0H160C160.52529 0 161.04553 .051239246 161.56072 .15371774 162.07593 .25619624 162.57617 .40794487 163.06147 .60896369 163.54677 .8099825 164.0078 1.0564089 164.44457 1.348243 164.88132 1.6400771 165.2854 1.9717112 165.65685 2.3431457 166.02828 2.7145799 166.35991 3.1186772 166.65174 3.5554376 166.94356 3.9921983 167.18999 4.4532296 167.39102 4.938532 167.59204 5.4238345 167.74379 5.9240829 167.84626 6.439277 167.94875 6.954471 167.99999 7.474712 168 8V104C167.99999 104.52528 167.94875 105.045528 167.84626 105.560718 167.74379 106.075908 167.59204 106.57616 167.39102 107.061458 167.18999 107.54675 166.94356 108.00778 166.65174 108.44454 166.35991 108.8813 166.02828 109.28541 165.65685 109.656848 165.2854 110.02828 164.88132 110.35992 164.44457 110.65175 164.0078 110.94358 163.54677 111.19 163.06147 111.391017 162.57617 111.59203 162.07593 111.74378 161.56072 111.84627 161.04553 111.948749 160.52529 111.99999 160 112H8C7.474712 111.99999 6.954471 111.948749 6.4392769 111.84627 5.9240825 111.74378 5.4238345 111.59203 4.938532 111.391017 4.4532296 111.19 3.9921983 110.94357 3.5554376 110.65174 3.1186772 110.35991 2.7145799 110.02828 2.3431457 109.656848 1.9717112 109.28541 1.640077 108.88131 1.3482429 108.44455 1.0564089 108.00779 .8099825 107.54675 .60896369 107.061458 .40794487 106.57616 .25619624 106.075908 .15371774 105.560718 .051239246 105.045528 0 104.52528 0 104V8C0 7.474712 .051239246 6.954471 .15371774 6.4392769 .25619624 5.9240825 .40794487 5.4238345 .60896369 4.938532 .8099825 4.4532296 1.0564089 3.9921983 1.348243 3.5554376 1.6400771 3.1186772 1.9717112 2.7145799 2.3431457 2.3431457 2.7145799 1.9717112 3.1186772 1.640077 3.5554376 1.3482429 3.9921983 1.0564089 4.4532296 .8099825 4.938532 .60896369 5.4238345 .40794487 5.9240829 .25619624 6.439277 .15371774 6.954471 .051239246 7.474712 0 8 0Z"/>
<g id="layer_1" data-name="P">
</g>
<text fill="#1a1a1a" xml:space="preserve" transform="matrix(1.2877041 0 0 1.2867936 351.83433 513.52566)" font-size="14" font-family="OpenSans"><tspan y="44" x="29.151368 32.889368 41.345369 44.887369 53.483369 62.13537 69.98937 73.53137 81.31538 86.25738 89.79938 98.25538">JoinRelation</tspan></text>
<path transform="matrix(1.2877041,0,0,1.2867936,349.63819,402.85963)" stroke-width="2" stroke-linecap="butt" stroke-miterlimit="4" stroke-linejoin="miter" fill="none" stroke="#333333" d="M69.7076 69.2V43C69.7076 37.666669 67.04094 35 61.707609 35H8C2.6666666 35 0 32.333333 0 27V13.672728"/>
<path transform="matrix(.00000000000000007096422,-1.1581143,1.1589336,.00000000000000007091405,349.63819,405.43324)" d="M-17.09091-8.545455 0 0-17.09091 8.545455V-8.545455Z" fill="#ffffff"/>
<path transform="matrix(.00000000000000007096422,-1.1581143,1.1589336,.00000000000000007091405,349.63819,405.43324)" stroke-width="2" stroke-linecap="butt" stroke-miterlimit="4" stroke-linejoin="miter" fill="none" stroke="#333333" d="M-17.09091-8.545455 0 0-17.09091 8.545455V-8.545455Z"/>
<path transform="matrix(1.2877041,0,0,1.2867936,483.74513,258.74494)" d="M8 0H160C160.52529 0 161.04553 .051239246 161.56072 .15371774 162.07593 .25619624 162.57617 .40794487 163.06147 .60896369 163.54677 .8099825 164.0078 1.0564089 164.44457 1.348243 164.88132 1.6400771 165.2854 1.9717112 165.65685 2.3431457 166.02828 2.7145799 166.35991 3.1186772 166.65174 3.5554376 166.94356 3.9921983 167.18999 4.4532296 167.39102 4.938532 167.59204 5.4238345 167.74379 5.9240829 167.84626 6.439277 167.94875 6.954471 167.99999 7.474712 168 8V104C167.99999 104.52528 167.94875 105.045528 167.84626 105.560718 167.74379 106.075908 167.59204 106.57616 167.39102 107.061458 167.18999 107.54675 166.94356 108.00778 166.65174 108.44454 166.35991 108.8813 166.02828 109.28541 165.65685 109.656848 165.2854 110.02828 164.88132 110.35992 164.44457 110.65175 164.0078 110.94358 163.54677 111.19 163.06147 111.391017 162.57617 111.59203 162.07593 111.74378 161.56072 111.84627 161.04553 111.948749 160.52529 111.99999 160 112H8C7.474712 111.99999 6.954471 111.948749 6.4392769 111.84627 5.9240825 111.74378 5.4238345 111.59203 4.938532 111.391017 4.4532296 111.19 3.9921983 110.94357 3.5554376 110.65174 3.1186772 110.35991 2.7145799 110.02828 2.3431457 109.656848 1.9717112 109.28541 1.640077 108.88131 1.3482429 108.44455 1.0564089 108.00779 .8099825 107.54675 .60896369 107.061458 .40794487 106.57616 .25619624 106.075908 .15371774 105.560718 .051239246 105.045528 0 104.52528 0 104V8C0 7.474712 .051239246 6.954471 .15371774 6.4392769 .25619624 5.9240825 .40794487 5.4238345 .60896369 4.938532 .8099825 4.4532296 1.0564089 3.9921983 1.348243 3.5554376 1.6400771 3.1186772 1.9717112 2.7145799 2.3431457 2.3431457 2.7145799 1.9717112 3.1186772 1.640077 3.5554376 1.3482429 3.9921983 1.0564089 4.4532296 .8099825 4.938532 .60896369 5.4238345 .40794487 5.9240829 .25619624 6.439277 .15371774 6.954471 .051239246 7.474712 0 8 0Z" fill="#ffffff"/>
<path transform="matrix(1.2877041,0,0,1.2867936,483.74513,258.74494)" stroke-width="2" stroke-linecap="round" stroke-linejoin="round" fill="none" stroke="#1a1a1a" d="M8 0H160C160.52529 0 161.04553 .051239246 161.56072 .15371774 162.07593 .25619624 162.57617 .40794487 163.06147 .60896369 163.54677 .8099825 164.0078 1.0564089 164.44457 1.348243 164.88132 1.6400771 165.2854 1.9717112 165.65685 2.3431457 166.02828 2.7145799 166.35991 3.1186772 166.65174 3.5554376 166.94356 3.9921983 167.18999 4.4532296 167.39102 4.938532 167.59204 5.4238345 167.74379 5.9240829 167.84626 6.439277 167.94875 6.954471 167.99999 7.474712 168 8V104C167.99999 104.52528 167.94875 105.045528 167.84626 105.560718 167.74379 106.075908 167.59204 106.57616 167.39102 107.061458 167.18999 107.54675 166.94356 108.00778 166.65174 108.44454 166.35991 108.8813 166.02828 109.28541 165.65685 109.656848 165.2854 110.02828 164.88132 110.35992 164.44457 110.65175 164.0078 110.94358 163.54677 111.19 163.06147 111.391017 162.57617 111.59203 162.07593 111.74378 161.56072 111.84627 161.04553 111.948749 160.52529 111.99999 160 112H8C7.474712 111.99999 6.954471 111.948749 6.4392769 111.84627 5.9240825 111.74378 5.4238345 111.59203 4.938532 111.391017 4.4532296 111.19 3.9921983 110.94357 3.5554376 110.65174 3.1186772 110.35991 2.7145799 110.02828 2.3431457 109.656848 1.9717112 109.28541 1.640077 108.88131 1.3482429 108.44455 1.0564089 108.00779 .8099825 107.54675 .60896369 107.061458 .40794487 106.57616 .25619624 106.075908 .15371774 105.560718 .051239246 105.045528 0 104.52528 0 104V8C0 7.474712 .051239246 6.954471 .15371774 6.4392769 .25619624 5.9240825 .40794487 5.4238345 .60896369 4.938532 .8099825 4.4532296 1.0564089 3.9921983 1.348243 3.5554376 1.6400771 3.1186772 1.9717112 2.7145799 2.3431457 2.3431457 2.7145799 1.9717112 3.1186772 1.640077 3.5554376 1.3482429 3.9921983 1.0564089 4.4532296 .8099825 4.938532 .60896369 5.4238345 .40794487 5.9240829 .25619624 6.439277 .15371774 6.954471 .051239246 7.474712 0 8 0Z"/>
<g id="layer_1" data-name="P">
</g>
<text fill="#1a1a1a" xml:space="preserve" transform="matrix(1.2877041 0 0 1.2867936 504.3484 279.33363)" font-size="14" font-family="OpenSans"><tspan y="44" x="9.990234 17.676236 26.272236 34.854238 43.436239 52.032239 59.88624 65.598239 72.654239 81.30624 89.16024 92.70224 100.486248 105.428249 108.970249 117.42625">SubqueryRelation</tspan></text>
<path transform="matrix(1.2877041,0,0,1.2867936,497.1199,168.56287)" stroke-width="2" stroke-linecap="butt" stroke-miterlimit="4" stroke-linejoin="miter" fill="none" stroke="#333333" d="M73.6162 69.279628V43.039815C73.6162 37.706483 70.94954 35.039815 65.6162 35.039815H8C2.6666666 35.039815 0 32.373147 0 27.039814V13.672728"/>
<path transform="matrix(.00000000000000007096422,-1.1581143,1.1589336,.00000000000000007091405,497.1199,171.13645)" d="M-17.09091-8.545455 0 0-17.09091 8.545455V-8.545455Z" fill="#ffffff"/>
<path transform="matrix(.00000000000000007096422,-1.1581143,1.1589336,.00000000000000007091405,497.1199,171.13645)" stroke-width="2" stroke-linecap="butt" stroke-miterlimit="4" stroke-linejoin="miter" fill="none" stroke="#333333" d="M-17.09091-8.545455 0 0-17.09091 8.545455V-8.545455Z"/>
</g>
</svg>
