<svg xmlns="http://www.w3.org/2000/svg" xmlns:xlink="http://www.w3.org/1999/xlink" version="1.1" width="866.88pt" height="678.95999pt" viewBox="0 0 866.88 678.95999">
<defs>
<clipPath id="clip_0">
<path transform="matrix(.24,0,0,.24,0,0)" d="M0 0H3612.5V2826.36H0Z" fill-rule="evenodd"/>
</clipPath>
<clipPath id="clip_1">
<path transform="matrix(.24,0,0,.24,0,0)" d="M0 0H3612.5V2826.36H0Z" fill-rule="evenodd"/>
</clipPath>
<clipPath id="clip_2">
<path transform="matrix(.24,0,0,.24,0,0)" d="M0 0H3612.5V2826.36H0Z" fill-rule="evenodd"/>
</clipPath>
</defs>
<g clip-path="url(#clip_0)">
<path transform="matrix(.7487046,0,0,.7487046,0,0)" d="M0 0H1158V906H0Z" fill="#ffffff"/>
</g>
<g clip-path="url(#clip_1)">
<path transform="matrix(1.6305082,0,0,1.6297813,0,0)" d="M0 0H531.738V416.21095H0Z" fill="#ffffff"/>
</g>
<g clip-path="url(#clip_2)">
<path transform="matrix(1.6305024,0,0,1.629785,229.81208,29.776793)" d="M8 0H128.26166C128.78694 0 129.30718 .051239246 129.82238 .15371774 130.33756 .25619624 130.83782 .40794487 131.32312 .60896369 131.80843 .8099825 132.26946 1.0564089 132.7062 1.348243 133.14298 1.6400771 133.54708 1.9717112 133.9185 2.3431457 134.28993 2.7145799 134.62157 3.1186772 134.9134 3.5554376 135.20523 3.9921983 135.45166 4.4532296 135.65268 4.938532 135.85369 5.4238345 136.00543 5.9240829 136.10793 6.439277 136.21042 6.954471 136.26166 7.474712 136.26166 8V71.0506C136.26166 71.57588 136.21042 72.09612 136.10793 72.61131 136.00543 73.1265 135.85369 73.626758 135.65268 74.11206 135.45166 74.59737 135.20523 75.058399 134.9134 75.495159 134.62157 75.931919 134.28993 76.33601 133.9185 76.70745 133.54708 77.07889 133.14298 77.41052 132.7062 77.702358 132.26946 77.99419 131.80841 78.240619 131.3231 78.44163 130.8378 78.64265 130.33756 78.794399 129.82238 78.89687 129.30718 78.99935 128.78694 79.05059 128.26166 79.0506H8C7.474712 79.05059 6.954471 78.99935 6.4392769 78.89687 5.9240825 78.794399 5.4238345 78.64265 4.938532 78.44163 4.4532296 78.240619 3.9921983 77.99419 3.5554376 77.702358 3.1186772 77.41052 2.7145799 77.07889 2.3431457 76.70745 1.9717112 76.33601 1.640077 75.931919 1.3482429 75.495159 1.0564089 75.058399 .8099825 74.59737 .60896369 74.11206 .40794487 73.626758 .25619624 73.1265 .15371774 72.61131 .051239246 72.09612 0 71.57588 0 71.0506V8C0 7.474712 .051239246 6.954471 .15371774 6.4392769 .25619624 5.9240825 .40794487 5.4238345 .60896369 4.938532 .8099825 4.4532296 1.0564089 3.9921983 1.348243 3.5554376 1.6400771 3.1186772 1.9717112 2.7145799 2.3431457 2.3431457 2.7145799 1.9717112 3.1186772 1.640077 3.5554376 1.3482429 3.9921983 1.0564089 4.4532296 .8099825 4.938532 .60896369 5.4238345 .40794487 5.9240829 .25619624 6.439277 .15371774 6.954471 .051239246 7.474712 0 8 0Z" fill="#ffffff"/>
<path transform="matrix(1.6305024,0,0,1.629785,229.81208,29.776793)" stroke-width="2" stroke-linecap="round" stroke-linejoin="round" fill="none" stroke="#1a1a1a" d="M8 0H128.26166C128.78694 0 129.30718 .051239246 129.82238 .15371774 130.33756 .25619624 130.83782 .40794487 131.32312 .60896369 131.80843 .8099825 132.26946 1.0564089 132.7062 1.348243 133.14298 1.6400771 133.54708 1.9717112 133.9185 2.3431457 134.28993 2.7145799 134.62157 3.1186772 134.9134 3.5554376 135.20523 3.9921983 135.45166 4.4532296 135.65268 4.938532 135.85369 5.4238345 136.00543 5.9240829 136.10793 6.439277 136.21042 6.954471 136.26166 7.474712 136.26166 8V71.0506C136.26166 71.57588 136.21042 72.09612 136.10793 72.61131 136.00543 73.1265 135.85369 73.626758 135.65268 74.11206 135.45166 74.59737 135.20523 75.058399 134.9134 75.495159 134.62157 75.931919 134.28993 76.33601 133.9185 76.70745 133.54708 77.07889 133.14298 77.41052 132.7062 77.702358 132.26946 77.99419 131.80841 78.240619 131.3231 78.44163 130.8378 78.64265 130.33756 78.794399 129.82238 78.89687 129.30718 78.99935 128.78694 79.05059 128.26166 79.0506H8C7.474712 79.05059 6.954471 78.99935 6.4392769 78.89687 5.9240825 78.794399 5.4238345 78.64265 4.938532 78.44163 4.4532296 78.240619 3.9921983 77.99419 3.5554376 77.702358 3.1186772 77.41052 2.7145799 77.07889 2.3431457 76.70745 1.9717112 76.33601 1.640077 75.931919 1.3482429 75.495159 1.0564089 75.058399 .8099825 74.59737 .60896369 74.11206 .40794487 73.626758 .25619624 73.1265 .15371774 72.61131 .051239246 72.09612 0 71.57588 0 71.0506V8C0 7.474712 .051239246 6.954471 .15371774 6.4392769 .25619624 5.9240825 .40794487 5.4238345 .60896369 4.938532 .8099825 4.4532296 1.0564089 3.9921983 1.348243 3.5554376 1.6400771 3.1186772 1.9717112 2.7145799 2.3431457 2.3431457 2.7145799 1.9717112 3.1186772 1.640077 3.5554376 1.3482429 3.9921983 1.0564089 4.4532296 .8099825 4.938532 .60896369 5.4238345 .40794487 5.9240829 .25619624 6.439277 .15371774 6.954471 .051239246 7.474712 0 8 0Z"/>
<g id="layer_1" data-name="P">
</g>
<text fill="#1a1a1a" xml:space="preserve" transform="matrix(1.6305024 0 0 1.629785 255.90015 55.85335)" font-size="16" font-family="OpenSans"><tspan y="28.525301" x="29.708952 38.49295 46.10895 55.772954 65.580959">Scope</tspan></text>
<path transform="matrix(1.6305024,0,0,1.629785,39.120775,262.34718)" d="M8 0H160C160.52529 0 161.04553 .051239246 161.56072 .15371774 162.07593 .25619624 162.57617 .40794487 163.06147 .60896369 163.54677 .8099825 164.0078 1.0564089 164.44457 1.348243 164.88132 1.6400771 165.2854 1.9717112 165.65685 2.3431457 166.02828 2.7145799 166.35991 3.1186772 166.65174 3.5554376 166.94356 3.9921983 167.18999 4.4532296 167.39102 4.938532 167.59204 5.4238345 167.74379 5.9240829 167.84626 6.439277 167.94875 6.954471 167.99999 7.474712 168 8V71.0506C167.99999 71.57588 167.94875 72.09612 167.84626 72.61131 167.74379 73.1265 167.59204 73.626758 167.39102 74.11206 167.18999 74.59737 166.94356 75.058399 166.65174 75.495159 166.35991 75.931919 166.02828 76.33601 165.65685 76.70745 165.2854 77.07889 164.88132 77.41052 164.44457 77.702358 164.0078 77.99419 163.54677 78.240619 163.06147 78.44163 162.57617 78.64265 162.07593 78.794399 161.56072 78.89687 161.04553 78.99935 160.52529 79.05059 160 79.0506H8C7.474712 79.05059 6.954471 78.99935 6.4392769 78.89687 5.9240825 78.794399 5.4238345 78.64265 4.938532 78.44163 4.4532296 78.240619 3.9921983 77.99419 3.5554376 77.702358 3.1186772 77.41052 2.7145799 77.07889 2.3431457 76.70745 1.9717112 76.33601 1.640077 75.931919 1.3482429 75.495159 1.0564089 75.058399 .8099825 74.59737 .60896369 74.11206 .40794487 73.626758 .25619624 73.1265 .15371774 72.61131 .051239246 72.09612 0 71.57588 0 71.0506V8C0 7.474712 .051239246 6.954471 .15371774 6.4392769 .25619624 5.9240825 .40794487 5.4238345 .60896369 4.938532 .8099825 4.4532296 1.0564089 3.9921983 1.348243 3.5554376 1.6400771 3.1186772 1.9717112 2.7145799 2.3431457 2.3431457 2.7145799 1.9717112 3.1186772 1.640077 3.5554376 1.3482429 3.9921983 1.0564089 4.4532296 .8099825 4.938532 .60896369 5.4238345 .40794487 5.9240829 .25619624 6.439277 .15371774 6.954471 .051239246 7.474712 0 8 0Z" fill="#ffffff"/>
<path transform="matrix(1.6305024,0,0,1.629785,39.120775,262.34718)" stroke-width="2" stroke-linecap="round" stroke-linejoin="round" fill="none" stroke="#1a1a1a" d="M8 0H160C160.52529 0 161.04553 .051239246 161.56072 .15371774 162.07593 .25619624 162.57617 .40794487 163.06147 .60896369 163.54677 .8099825 164.0078 1.0564089 164.44457 1.348243 164.88132 1.6400771 165.2854 1.9717112 165.65685 2.3431457 166.02828 2.7145799 166.35991 3.1186772 166.65174 3.5554376 166.94356 3.9921983 167.18999 4.4532296 167.39102 4.938532 167.59204 5.4238345 167.74379 5.9240829 167.84626 6.439277 167.94875 6.954471 167.99999 7.474712 168 8V71.0506C167.99999 71.57588 167.94875 72.09612 167.84626 72.61131 167.74379 73.1265 167.59204 73.626758 167.39102 74.11206 167.18999 74.59737 166.94356 75.058399 166.65174 75.495159 166.35991 75.931919 166.02828 76.33601 165.65685 76.70745 165.2854 77.07889 164.88132 77.41052 164.44457 77.702358 164.0078 77.99419 163.54677 78.240619 163.06147 78.44163 162.57617 78.64265 162.07593 78.794399 161.56072 78.89687 161.04553 78.99935 160.52529 79.05059 160 79.0506H8C7.474712 79.05059 6.954471 78.99935 6.4392769 78.89687 5.9240825 78.794399 5.4238345 78.64265 4.938532 78.44163 4.4532296 78.240619 3.9921983 77.99419 3.5554376 77.702358 3.1186772 77.41052 2.7145799 77.07889 2.3431457 76.70745 1.9717112 76.33601 1.640077 75.931919 1.3482429 75.495159 1.0564089 75.058399 .8099825 74.59737 .60896369 74.11206 .40794487 73.626758 .25619624 73.1265 .15371774 72.61131 .051239246 72.09612 0 71.57588 0 71.0506V8C0 7.474712 .051239246 6.954471 .15371774 6.4392769 .25619624 5.9240825 .40794487 5.4238345 .60896369 4.938532 .8099825 4.4532296 1.0564089 3.9921983 1.348243 3.5554376 1.6400771 3.1186772 1.9717112 2.7145799 2.3431457 2.3431457 2.7145799 1.9717112 3.1186772 1.640077 3.5554376 1.3482429 3.9921983 1.0564089 4.4532296 .8099825 4.938532 .60896369 5.4238345 .40794487 5.9240829 .25619624 6.439277 .15371774 6.954471 .051239246 7.474712 0 8 0Z"/>
<g id="layer_1" data-name="P">
</g>
<text fill="#1a1a1a" xml:space="preserve" transform="matrix(1.6305024 0 0 1.629785 65.20881 288.42375)" font-size="16" font-family="OpenSans"><tspan y="28.525301" x="27.304688 36.200689 44.584688 54.392686 60.920686 69.89668 77.52869 85.16069 89.208698 98.872699">Expression</tspan></text>
<path transform="matrix(1.6305024,0,0,1.629785,176.08841,158.61495)" stroke-width="2" stroke-linecap="butt" stroke-miterlimit="4" stroke-linejoin="miter" fill="none" stroke="#333333" d="M0 62.848157V47.771203C0 42.43787 2.6666666 39.771203 8 39.771203H55.424264C60.757596 39.771203 63.424264 37.104536 63.424264 31.771203V13.672728"/>
<path transform="matrix(.00000000000000008985552,-1.4668064,1.467452,.000000000000000089815988,279.50184,161.8745)" d="M-17.09091-8.545455 0 0-17.09091 8.545455V-8.545455Z" fill="#ffffff"/>
<path transform="matrix(.00000000000000008985552,-1.4668064,1.467452,.000000000000000089815988,279.50184,161.8745)" stroke-width="2" stroke-linecap="butt" stroke-miterlimit="4" stroke-linejoin="miter" fill="none" stroke="#333333" d="M-17.09091-8.545455 0 0-17.09091 8.545455V-8.545455Z"/>
<path transform="matrix(1.6305024,0,0,1.629785,368.60694,262.34718)" d="M8 0H160C160.52529 0 161.04553 .051239246 161.56072 .15371774 162.07593 .25619624 162.57617 .40794487 163.06147 .60896369 163.54677 .8099825 164.0078 1.0564089 164.44457 1.348243 164.88132 1.6400771 165.2854 1.9717112 165.65685 2.3431457 166.02828 2.7145799 166.35991 3.1186772 166.65174 3.5554376 166.94356 3.9921983 167.18999 4.4532296 167.39102 4.938532 167.59204 5.4238345 167.74379 5.9240829 167.84626 6.439277 167.94875 6.954471 167.99999 7.474712 168 8V71.0506C167.99999 71.57588 167.94875 72.09612 167.84626 72.61131 167.74379 73.1265 167.59204 73.626758 167.39102 74.11206 167.18999 74.59737 166.94356 75.058399 166.65174 75.495159 166.35991 75.931919 166.02828 76.33601 165.65685 76.70745 165.2854 77.07889 164.88132 77.41052 164.44457 77.702358 164.0078 77.99419 163.54677 78.240619 163.06147 78.44163 162.57617 78.64265 162.07593 78.794399 161.56072 78.89687 161.04553 78.99935 160.52529 79.05059 160 79.0506H8C7.474712 79.05059 6.954471 78.99935 6.4392769 78.89687 5.9240825 78.794399 5.4238345 78.64265 4.938532 78.44163 4.4532296 78.240619 3.9921983 77.99419 3.5554376 77.702358 3.1186772 77.41052 2.7145799 77.07889 2.3431457 76.70745 1.9717112 76.33601 1.640077 75.931919 1.3482429 75.495159 1.0564089 75.058399 .8099825 74.59737 .60896369 74.11206 .40794487 73.626758 .25619624 73.1265 .15371774 72.61131 .051239246 72.09612 0 71.57588 0 71.0506V8C0 7.474712 .051239246 6.954471 .15371774 6.4392769 .25619624 5.9240825 .40794487 5.4238345 .60896369 4.938532 .8099825 4.4532296 1.0564089 3.9921983 1.348243 3.5554376 1.6400771 3.1186772 1.9717112 2.7145799 2.3431457 2.3431457 2.7145799 1.9717112 3.1186772 1.640077 3.5554376 1.3482429 3.9921983 1.0564089 4.4532296 .8099825 4.938532 .60896369 5.4238345 .40794487 5.9240829 .25619624 6.439277 .15371774 6.954471 .051239246 7.474712 0 8 0Z" fill="#ffffff"/>
<path transform="matrix(1.6305024,0,0,1.629785,368.60694,262.34718)" stroke-width="2" stroke-linecap="round" stroke-linejoin="round" fill="none" stroke="#1a1a1a" d="M8 0H160C160.52529 0 161.04553 .051239246 161.56072 .15371774 162.07593 .25619624 162.57617 .40794487 163.06147 .60896369 163.54677 .8099825 164.0078 1.0564089 164.44457 1.348243 164.88132 1.6400771 165.2854 1.9717112 165.65685 2.3431457 166.02828 2.7145799 166.35991 3.1186772 166.65174 3.5554376 166.94356 3.9921983 167.18999 4.4532296 167.39102 4.938532 167.59204 5.4238345 167.74379 5.9240829 167.84626 6.439277 167.94875 6.954471 167.99999 7.474712 168 8V71.0506C167.99999 71.57588 167.94875 72.09612 167.84626 72.61131 167.74379 73.1265 167.59204 73.626758 167.39102 74.11206 167.18999 74.59737 166.94356 75.058399 166.65174 75.495159 166.35991 75.931919 166.02828 76.33601 165.65685 76.70745 165.2854 77.07889 164.88132 77.41052 164.44457 77.702358 164.0078 77.99419 163.54677 78.240619 163.06147 78.44163 162.57617 78.64265 162.07593 78.794399 161.56072 78.89687 161.04553 78.99935 160.52529 79.05059 160 79.0506H8C7.474712 79.05059 6.954471 78.99935 6.4392769 78.89687 5.9240825 78.794399 5.4238345 78.64265 4.938532 78.44163 4.4532296 78.240619 3.9921983 77.99419 3.5554376 77.702358 3.1186772 77.41052 2.7145799 77.07889 2.3431457 76.70745 1.9717112 76.33601 1.640077 75.931919 1.3482429 75.495159 1.0564089 75.058399 .8099825 74.59737 .60896369 74.11206 .40794487 73.626758 .25619624 73.1265 .15371774 72.61131 .051239246 72.09612 0 71.57588 0 71.0506V8C0 7.474712 .051239246 6.954471 .15371774 6.4392769 .25619624 5.9240825 .40794487 5.4238345 .60896369 4.938532 .8099825 4.4532296 1.0564089 3.9921983 1.348243 3.5554376 1.6400771 3.1186772 1.9717112 2.7145799 2.3431457 2.3431457 2.7145799 1.9717112 3.1186772 1.640077 3.5554376 1.3482429 3.9921983 1.0564089 4.4532296 .8099825 4.938532 .60896369 5.4238345 .40794487 5.9240829 .25619624 6.439277 .15371774 6.954471 .051239246 7.474712 0 8 0Z"/>
<g id="layer_1" data-name="P">
</g>
<text fill="#1a1a1a" xml:space="preserve" transform="matrix(1.6305024 0 0 1.629785 394.69499 288.42375)" font-size="16" font-family="OpenSans"><tspan y="28.525301" x="26.574219 41.02222 50.846223 54.894224 60.54222 64.590229 73.37422 80.99022 90.65422 100.46222">MultiScope</tspan></text>
<path transform="matrix(1.6305024,0,0,1.629785,404.0658,158.61495)" stroke-width="2" stroke-linecap="butt" stroke-miterlimit="4" stroke-linejoin="miter" fill="none" stroke="#333333" d="M62.256937 62.848157V46.98973C62.256937 41.6564 59.590269 38.98973 54.256937 38.98973H8C2.6666666 38.98973 0 36.323068 0 30.989733V13.672728"/>
<path transform="matrix(.00000000000000008985552,-1.4668064,1.467452,.000000000000000089815988,404.0658,161.8745)" d="M-17.09091-8.545455 0 0-17.09091 8.545455V-8.545455Z" fill="#ffffff"/>
<path transform="matrix(.00000000000000008985552,-1.4668064,1.467452,.000000000000000089815988,404.0658,161.8745)" stroke-width="2" stroke-linecap="butt" stroke-miterlimit="4" stroke-linejoin="miter" fill="none" stroke="#333333" d="M-17.09091-8.545455 0 0-17.09091 8.545455V-8.545455Z"/>
<path transform="matrix(1.6305024,0,0,1.629785,553.7716,502.7772)" d="M8 0H160C160.52529 0 161.04553 .051239246 161.56072 .15371774 162.07593 .25619624 162.57617 .40794487 163.06147 .60896369 163.54677 .8099825 164.0078 1.0564089 164.44457 1.348243 164.88132 1.6400771 165.2854 1.9717112 165.65685 2.3431457 166.02828 2.7145799 166.35991 3.1186772 166.65174 3.5554376 166.94356 3.9921983 167.18999 4.4532296 167.39102 4.938532 167.59204 5.4238345 167.74379 5.9240829 167.84626 6.439277 167.94875 6.954471 167.99999 7.474712 168 8V71.0506C167.99999 71.57588 167.94875 72.09612 167.84626 72.61131 167.74379 73.1265 167.59204 73.626758 167.39102 74.11206 167.18999 74.59737 166.94356 75.058399 166.65174 75.495159 166.35991 75.931919 166.02828 76.33601 165.65685 76.70745 165.2854 77.07889 164.88132 77.41052 164.44457 77.702358 164.0078 77.99419 163.54677 78.240619 163.06147 78.44163 162.57617 78.64265 162.07593 78.794399 161.56072 78.89687 161.04553 78.99935 160.52529 79.05059 160 79.0506H8C7.474712 79.05059 6.954471 78.99935 6.4392769 78.89687 5.9240825 78.794399 5.4238345 78.64265 4.938532 78.44163 4.4532296 78.240619 3.9921983 77.99419 3.5554376 77.702358 3.1186772 77.41052 2.7145799 77.07889 2.3431457 76.70745 1.9717112 76.33601 1.640077 75.931919 1.3482429 75.495159 1.0564089 75.058399 .8099825 74.59737 .60896369 74.11206 .40794487 73.626758 .25619624 73.1265 .15371774 72.61131 .051239246 72.09612 0 71.57588 0 71.0506V8C0 7.474712 .051239246 6.954471 .15371774 6.4392769 .25619624 5.9240825 .40794487 5.4238345 .60896369 4.938532 .8099825 4.4532296 1.0564089 3.9921983 1.348243 3.5554376 1.6400771 3.1186772 1.9717112 2.7145799 2.3431457 2.3431457 2.7145799 1.9717112 3.1186772 1.640077 3.5554376 1.3482429 3.9921983 1.0564089 4.4532296 .8099825 4.938532 .60896369 5.4238345 .40794487 5.9240829 .25619624 6.439277 .15371774 6.954471 .051239246 7.474712 0 8 0Z" fill="#ffffff"/>
<path transform="matrix(1.6305024,0,0,1.629785,553.7716,502.7772)" stroke-width="2" stroke-linecap="round" stroke-linejoin="round" fill="none" stroke="#1a1a1a" d="M8 0H160C160.52529 0 161.04553 .051239246 161.56072 .15371774 162.07593 .25619624 162.57617 .40794487 163.06147 .60896369 163.54677 .8099825 164.0078 1.0564089 164.44457 1.348243 164.88132 1.6400771 165.2854 1.9717112 165.65685 2.3431457 166.02828 2.7145799 166.35991 3.1186772 166.65174 3.5554376 166.94356 3.9921983 167.18999 4.4532296 167.39102 4.938532 167.59204 5.4238345 167.74379 5.9240829 167.84626 6.439277 167.94875 6.954471 167.99999 7.474712 168 8V71.0506C167.99999 71.57588 167.94875 72.09612 167.84626 72.61131 167.74379 73.1265 167.59204 73.626758 167.39102 74.11206 167.18999 74.59737 166.94356 75.058399 166.65174 75.495159 166.35991 75.931919 166.02828 76.33601 165.65685 76.70745 165.2854 77.07889 164.88132 77.41052 164.44457 77.702358 164.0078 77.99419 163.54677 78.240619 163.06147 78.44163 162.57617 78.64265 162.07593 78.794399 161.56072 78.89687 161.04553 78.99935 160.52529 79.05059 160 79.0506H8C7.474712 79.05059 6.954471 78.99935 6.4392769 78.89687 5.9240825 78.794399 5.4238345 78.64265 4.938532 78.44163 4.4532296 78.240619 3.9921983 77.99419 3.5554376 77.702358 3.1186772 77.41052 2.7145799 77.07889 2.3431457 76.70745 1.9717112 76.33601 1.640077 75.931919 1.3482429 75.495159 1.0564089 75.058399 .8099825 74.59737 .60896369 74.11206 .40794487 73.626758 .25619624 73.1265 .15371774 72.61131 .051239246 72.09612 0 71.57588 0 71.0506V8C0 7.474712 .051239246 6.954471 .15371774 6.4392769 .25619624 5.9240825 .40794487 5.4238345 .60896369 4.938532 .8099825 4.4532296 1.0564089 3.9921983 1.348243 3.5554376 1.6400771 3.1186772 1.9717112 2.7145799 2.3431457 2.3431457 2.7145799 1.9717112 3.1186772 1.640077 3.5554376 1.3482429 3.9921983 1.0564089 4.4532296 .8099825 4.938532 .60896369 5.4238345 .40794487 5.9240829 .25619624 6.439277 .15371774 6.954471 .051239246 7.474712 0 8 0Z"/>
<g id="layer_1" data-name="P">
</g>
<text fill="#1a1a1a" xml:space="preserve" transform="matrix(1.6305024 0 0 1.629785 579.8596 528.85379)" font-size="16" font-family="OpenSans"><tspan y="28.525301" x="24.828125 33.676126 43.500127 53.30813 57.35613 66.33213 75.116138 82.73213 92.39613 102.20413">TupleScope</tspan></text>
<path transform="matrix(1.6305024,0,0,1.629785,591.27487,391.1853)" stroke-width="2" stroke-linecap="butt" stroke-miterlimit="4" stroke-linejoin="miter" fill="none" stroke="#333333" d="M60.99796 67.67336V49.505876C60.99796 44.172544 58.33129 41.505876 52.99796 41.505876H8C2.6666666 41.505876 0 38.839208 0 33.505876V13.672728"/>
<path transform="matrix(.00000000000000008985552,-1.4668064,1.467452,.000000000000000089815988,591.27487,394.4449)" d="M-17.09091-8.545455 0 0-17.09091 8.545455V-8.545455Z" fill="#ffffff"/>
<path transform="matrix(.00000000000000008985552,-1.4668064,1.467452,.000000000000000089815988,591.27487,394.4449)" stroke-width="2" stroke-linecap="butt" stroke-miterlimit="4" stroke-linejoin="miter" fill="none" stroke="#333333" d="M-17.09091-8.545455 0 0-17.09091 8.545455V-8.545455Z"/>
<path transform="matrix(1.6305024,0,0,1.629785,203.93875,502.7772)" d="M8 0H160C160.52529 0 161.04553 .051239246 161.56072 .15371774 162.07593 .25619624 162.57617 .40794487 163.06147 .60896369 163.54677 .8099825 164.0078 1.0564089 164.44457 1.348243 164.88132 1.6400771 165.2854 1.9717112 165.65685 2.3431457 166.02828 2.7145799 166.35991 3.1186772 166.65174 3.5554376 166.94356 3.9921983 167.18999 4.4532296 167.39102 4.938532 167.59204 5.4238345 167.74379 5.9240829 167.84626 6.439277 167.94875 6.954471 167.99999 7.474712 168 8V71.0506C167.99999 71.57588 167.94875 72.09612 167.84626 72.61131 167.74379 73.1265 167.59204 73.626758 167.39102 74.11206 167.18999 74.59737 166.94356 75.058399 166.65174 75.495159 166.35991 75.931919 166.02828 76.33601 165.65685 76.70745 165.2854 77.07889 164.88132 77.41052 164.44457 77.702358 164.0078 77.99419 163.54677 78.240619 163.06147 78.44163 162.57617 78.64265 162.07593 78.794399 161.56072 78.89687 161.04553 78.99935 160.52529 79.05059 160 79.0506H8C7.474712 79.05059 6.954471 78.99935 6.4392769 78.89687 5.9240825 78.794399 5.4238345 78.64265 4.938532 78.44163 4.4532296 78.240619 3.9921983 77.99419 3.5554376 77.702358 3.1186772 77.41052 2.7145799 77.07889 2.3431457 76.70745 1.9717112 76.33601 1.640077 75.931919 1.3482429 75.495159 1.0564089 75.058399 .8099825 74.59737 .60896369 74.11206 .40794487 73.626758 .25619624 73.1265 .15371774 72.61131 .051239246 72.09612 0 71.57588 0 71.0506V8C0 7.474712 .051239246 6.954471 .15371774 6.4392769 .25619624 5.9240825 .40794487 5.4238345 .60896369 4.938532 .8099825 4.4532296 1.0564089 3.9921983 1.348243 3.5554376 1.6400771 3.1186772 1.9717112 2.7145799 2.3431457 2.3431457 2.7145799 1.9717112 3.1186772 1.640077 3.5554376 1.3482429 3.9921983 1.0564089 4.4532296 .8099825 4.938532 .60896369 5.4238345 .40794487 5.9240829 .25619624 6.439277 .15371774 6.954471 .051239246 7.474712 0 8 0Z" fill="#ffffff"/>
<path transform="matrix(1.6305024,0,0,1.629785,203.93875,502.7772)" stroke-width="2" stroke-linecap="round" stroke-linejoin="round" fill="none" stroke="#1a1a1a" d="M8 0H160C160.52529 0 161.04553 .051239246 161.56072 .15371774 162.07593 .25619624 162.57617 .40794487 163.06147 .60896369 163.54677 .8099825 164.0078 1.0564089 164.44457 1.348243 164.88132 1.6400771 165.2854 1.9717112 165.65685 2.3431457 166.02828 2.7145799 166.35991 3.1186772 166.65174 3.5554376 166.94356 3.9921983 167.18999 4.4532296 167.39102 4.938532 167.59204 5.4238345 167.74379 5.9240829 167.84626 6.439277 167.94875 6.954471 167.99999 7.474712 168 8V71.0506C167.99999 71.57588 167.94875 72.09612 167.84626 72.61131 167.74379 73.1265 167.59204 73.626758 167.39102 74.11206 167.18999 74.59737 166.94356 75.058399 166.65174 75.495159 166.35991 75.931919 166.02828 76.33601 165.65685 76.70745 165.2854 77.07889 164.88132 77.41052 164.44457 77.702358 164.0078 77.99419 163.54677 78.240619 163.06147 78.44163 162.57617 78.64265 162.07593 78.794399 161.56072 78.89687 161.04553 78.99935 160.52529 79.05059 160 79.0506H8C7.474712 79.05059 6.954471 78.99935 6.4392769 78.89687 5.9240825 78.794399 5.4238345 78.64265 4.938532 78.44163 4.4532296 78.240619 3.9921983 77.99419 3.5554376 77.702358 3.1186772 77.41052 2.7145799 77.07889 2.3431457 76.70745 1.9717112 76.33601 1.640077 75.931919 1.3482429 75.495159 1.0564089 75.058399 .8099825 74.59737 .60896369 74.11206 .40794487 73.626758 .25619624 73.1265 .15371774 72.61131 .051239246 72.09612 0 71.57588 0 71.0506V8C0 7.474712 .051239246 6.954471 .15371774 6.4392769 .25619624 5.9240825 .40794487 5.4238345 .60896369 4.938532 .8099825 4.4532296 1.0564089 3.9921983 1.348243 3.5554376 1.6400771 3.1186772 1.9717112 2.7145799 2.3431457 2.3431457 2.7145799 1.9717112 3.1186772 1.640077 3.5554376 1.3482429 3.9921983 1.0564089 4.4532296 .8099825 4.938532 .60896369 5.4238345 .40794487 5.9240829 .25619624 6.439277 .15371774 6.954471 .051239246 7.474712 0 8 0Z"/>
<g id="layer_1" data-name="P">
</g>
<text fill="#1a1a1a" xml:space="preserve" transform="matrix(1.6305024 0 0 1.629785 230.02677 528.85379)" font-size="16" font-family="OpenSans"><tspan y="28.525301" x="25.289063 34.137063 43.033063 52.841066 56.889066 65.86507 74.64906 82.26506 91.92906 101.73706">TableScope</tspan></text>
<path transform="matrix(1.6305024,0,0,1.629785,340.8989,391.1853)" stroke-width="2" stroke-linecap="butt" stroke-miterlimit="4" stroke-linejoin="miter" fill="none" stroke="#333333" d="M0 67.67336V49.46116C0 44.127828 2.6666666 41.46116 8 41.46116H48.99061C54.32394 41.46116 56.99061 38.79449 56.99061 33.46116V13.672728"/>
<path transform="matrix(.00000000000000008985552,-1.4668064,1.467452,.000000000000000089815988,433.82225,394.4449)" d="M-17.09091-8.545455 0 0-17.09091 8.545455V-8.545455Z" fill="#ffffff"/>
<path transform="matrix(.00000000000000008985552,-1.4668064,1.467452,.000000000000000089815988,433.82225,394.4449)" stroke-width="2" stroke-linecap="butt" stroke-miterlimit="4" stroke-linejoin="miter" fill="none" stroke="#333333" d="M-17.09091-8.545455 0 0-17.09091 8.545455V-8.545455Z"/>
</g>
</svg>
